<?xml version="1.0" encoding="UTF-8" standalone="no"?><!DOCTYPE svg PUBLIC "-//W3C//DTD SVG 1.1//EN" "http://www.w3.org/Graphics/SVG/1.1/DTD/svg11.dtd"><svg width="100%" height="100%" viewBox="0 0 978 972" version="1.1" xmlns="http://www.w3.org/2000/svg" xmlns:xlink="http://www.w3.org/1999/xlink" xml:space="preserve" xmlns:serif="http://www.serif.com/" style="fill-rule:evenodd;clip-rule:evenodd;stroke-linejoin:round;stroke-miterlimit:2;"><g opacity="0.4"><path d="M470.125,118.792l0,4.458l18.75,10.792l0,-4.459l-18.75,-10.791Z" style="fill-rule:nonzero;"/><path d="M470.125,126.917l0,4.5l18.75,10.791l0,-4.458l-18.75,-10.833Z" style="fill-rule:nonzero;"/><path d="M470.125,135.083l0,4.459l18.75,10.833l0,-4.5l-18.75,-10.792Z" style="fill-rule:nonzero;"/><path d="M611.542,229.25l-0,-4.458l-115.625,-66.709l-0,4.459l115.625,66.708Z" style="fill-rule:nonzero;"/><path d="M470.125,143.25l0,4.458l18.75,10.792l0,-4.458l-18.75,-10.792Z" style="fill-rule:nonzero;"/><path d="M470.125,151.375l0,4.458l18.75,10.834l0,-4.5l-18.75,-10.792Z" style="fill-rule:nonzero;"/><path d="M611.542,237.417l-0,-4.459l-115.625,-66.708l-0,4.458l115.625,66.709Z" style="fill-rule:nonzero;"/><path d="M470.125,175.833l0,4.459l18.75,10.791l0,-4.458l-18.75,-10.792Z" style="fill-rule:nonzero;"/><path d="M470.125,183.958l0,4.459l18.75,10.833l0,-4.458l-18.75,-10.834Z" style="fill-rule:nonzero;"/><path d="M470.125,216.583l0,4.459l18.75,10.791l0,-4.458l-18.75,-10.792Z" style="fill-rule:nonzero;"/><path d="M470.125,224.708l0,4.459l18.75,10.791l0,-4.458l-18.75,-10.792Z" style="fill-rule:nonzero;"/><path d="M568.833,281.667l-72.916,-42.084l-0,4.459l72.916,42.083l0,-4.458Z" style="fill-rule:nonzero;"/><path d="M572.708,283.875l0,4.458l38.834,22.417l-0,-4.458l-38.834,-22.417Z" style="fill-rule:nonzero;"/><path d="M532.542,252.583l-36.625,-21.166l-0,4.458l36.625,21.167l-0,-4.459Z" style="fill-rule:nonzero;"/><path d="M536.417,254.792l-0,4.458l75.125,43.333l-0,-4.458l-75.125,-43.333Z" style="fill-rule:nonzero;"/><path d="M601.667,268l-0,4.458l9.875,5.667l-0,-4.458l-9.875,-5.667Z" style="fill-rule:nonzero;"/><path d="M547.875,228.792l-51.958,-29.959l-0,4.459l51.958,29.958l0,-4.458Z" style="fill-rule:nonzero;"/><path d="M526.583,151.333l-30.666,-17.666l-0,4.458l30.666,17.667l0,-4.459Z" style="fill-rule:nonzero;"/><path d="M576.833,180.333l-46.416,-26.791l-0,4.458l46.416,26.792l0,-4.459Z" style="fill-rule:nonzero;"/><path d="M549.792,172.875l-32.709,-18.833l0,4.458l32.709,18.833l-0,-4.458Z" style="fill-rule:nonzero;"/><path d="M584.083,192.667l-30.458,-17.584l0,4.459l30.458,17.583l0,-4.458Z" style="fill-rule:nonzero;"/><path d="M587.917,194.875l-0,4.458l23.625,13.625l-0,-4.458l-23.625,-13.625Z" style="fill-rule:nonzero;"/><path d="M501.958,153.417l0,4.458l24.625,14.208l0,-4.458l-24.625,-14.208Z" style="fill-rule:nonzero;"/><path d="M601.917,211.083l-71.5,-41.208l-0,4.458l71.5,41.209l-0,-4.459Z" style="fill-rule:nonzero;"/><path d="M560.958,211.917l-46.708,-26.917l0,4.458l46.708,26.917l0,-4.458Z" style="fill-rule:nonzero;"/><path d="M601.917,235.542l-37.084,-21.375l0,4.458l37.084,21.375l-0,-4.458Z" style="fill-rule:nonzero;"/><path d="M597.792,257.625l-46.084,-26.583l0,4.458l46.084,26.583l-0,-4.458Z" style="fill-rule:nonzero;"/><path d="M572.708,251.292l0,4.458l25.084,14.458l-0,-4.458l-25.084,-14.458Z" style="fill-rule:nonzero;"/><path d="M504.958,212.208l-9.041,-5.208l-0,4.458l9.041,5.209l0,-4.459Z" style="fill-rule:nonzero;"/><path d="M521.875,221.958l0,4.459l46.958,27.083l0,-4.458l-46.958,-27.084Z" style="fill-rule:nonzero;"/><path d="M518.042,219.75l-9.25,-5.333l-0,4.458l9.25,5.333l-0,-4.458Z" style="fill-rule:nonzero;"/><path d="M560.167,252.208l-51.375,-29.625l-0,4.459l51.375,29.625l-0,-4.459Z" style="fill-rule:nonzero;"/></g><g opacity="0.4"><path d="M570.042,45l-77.709,-45l0,3.958l77.709,45l-0,-3.958Z" style="fill-rule:nonzero;"/><path d="M492.333,11.708l119.209,68.959l-0,-3.959l-119.209,-68.958l0,3.958Z" style="fill-rule:nonzero;"/><path d="M575.25,47.917l0,3.958l36.292,21.042l-0,-3.959l-36.292,-21.041Z" style="fill-rule:nonzero;"/><path d="M570.042,60.125l-77.709,-45l0,3.958l77.709,45l-0,-3.958Z" style="fill-rule:nonzero;"/><path d="M492.333,26.875l119.209,68.917l-0,-3.959l-119.209,-68.916l0,3.958Z" style="fill-rule:nonzero;"/><path d="M575.25,67l36.292,21.042l-0,-3.959l-36.292,-21l0,3.917Z" style="fill-rule:nonzero;"/><path d="M570.042,85.125l-77.709,-45l0,3.958l77.709,45l-0,-3.958Z" style="fill-rule:nonzero;"/><path d="M492.333,51.875l119.209,68.917l-0,-3.959l-119.209,-68.916l0,3.958Z" style="fill-rule:nonzero;"/><path d="M575.25,92l36.292,21.042l-0,-3.959l-36.292,-21l0,3.917Z" style="fill-rule:nonzero;"/><path d="M570.042,100.292l-77.709,-45l0,3.958l77.709,45l-0,-3.958Z" style="fill-rule:nonzero;"/><path d="M492.333,67l119.209,68.958l-0,-3.958l-119.209,-68.958l0,3.958Z" style="fill-rule:nonzero;"/><path d="M575.25,107.167l36.292,21l-0,-3.917l-36.292,-21.042l0,3.959Z" style="fill-rule:nonzero;"/><path d="M570.042,125.292l-77.709,-45l0,3.958l77.709,45l-0,-3.958Z" style="fill-rule:nonzero;"/><path d="M492.333,92l119.209,68.958l-0,-3.958l-119.209,-68.958l0,3.958Z" style="fill-rule:nonzero;"/><path d="M575.25,132.167l36.292,21l-0,-3.959l-36.292,-21l0,3.959Z" style="fill-rule:nonzero;"/><path d="M570.042,140.417l-77.709,-45l0,3.958l77.709,45l-0,-3.958Z" style="fill-rule:nonzero;"/><path d="M492.333,107.125l119.209,68.958l-0,-3.958l-119.209,-68.958l0,3.958Z" style="fill-rule:nonzero;"/><path d="M575.25,147.292l36.292,21.041l-0,-3.958l-36.292,-21.042l0,3.959Z" style="fill-rule:nonzero;"/></g><path d="M360.417,101.708l-58.042,-33.333c-0.663,-0.415 -1.429,-0.635 -2.211,-0.635c-2.285,0 -4.166,1.881 -4.166,4.167c-0,0.045 0.001,0.09 0.002,0.135l0,69.458c-0.065,3.434 1.762,6.64 4.75,8.333l58.042,33.584c0.692,0.472 1.51,0.724 2.348,0.724c2.285,0 4.166,-1.881 4.166,-4.166c0,-0.117 -0.005,-0.234 -0.014,-0.35l-0,-69.583c-0.048,-3.438 -1.902,-6.608 -4.875,-8.334Z" style="fill-opacity:0.2;fill-rule:nonzero;"/><path d="M334.667,160.292l-76.084,-43.875c-2.38,-1.385 -5.358,-1.271 -7.625,0.291l-16.666,9.625l7.75,10.542l2.916,3.333l0,75.375c-0.017,4.478 2.372,8.636 6.25,10.875l56.959,32.959l0.583,3.166l11.625,16.292l17.875,-10.542c1.709,-1.026 2.756,-2.881 2.75,-4.875l0,-91.666c0.104,-4.686 -2.318,-9.083 -6.333,-11.5Z" style="fill:#f4767a;fill-rule:nonzero;"/><path d="M316.875,170.75l-76.917,-44.417c-0.83,-0.456 -1.761,-0.695 -2.708,-0.695c-3.065,0 -5.595,2.505 -5.625,5.57l0,92.167c-0.009,4.486 2.398,8.647 6.292,10.875l77,44.542c0.875,0.5 1.866,0.764 2.875,0.764c3.166,-0 5.776,-2.598 5.791,-5.764l0,-91.667c-0.018,-4.719 -2.587,-9.076 -6.708,-11.375Z" style="fill:#ed5561;fill-rule:nonzero;"/><g transform="matrix(0.733376,0.41075,-0.185766,1.04212,62.6458,-79.7665)"><g transform="matrix(40.6216,0,0,40.6216,356.01,155.069)"></g><text x="301.822px" y="155.069px" style="font-family:'ArialMT', 'Arial', sans-serif;font-size:40.622px;fill:#fff;">Go</text></g><path d="M323.292,273.792l-0,-91.667c-0.037,-1.511 -0.333,-3.005 -0.875,-4.417l17.833,-10.291c0.518,1.329 0.8,2.74 0.833,4.166l0,91.667c0.006,1.994 -1.04,3.849 -2.75,4.875l-17.708,10.417c1.64,-1.024 2.647,-2.818 2.667,-4.75Z" style="fill:#d8395a;fill-rule:nonzero;"/><g opacity="0.4"><path d="M154.958,163.708l0,4.459l18.75,10.833l0,-4.458l-18.75,-10.834Z" style="fill-rule:nonzero;"/><path d="M154.958,171.875l0,4.458l18.75,10.792l0,-4.458l-18.75,-10.792Z" style="fill-rule:nonzero;"/><path d="M154.958,180l0,4.458l18.75,10.834l0,-4.459l-18.75,-10.833Z" style="fill-rule:nonzero;"/><path d="M296.375,274.167l0,-4.459l-115.625,-66.666l0,4.458l115.625,66.667Z" style="fill-rule:nonzero;"/><path d="M154.958,188.167l0,4.458l18.75,10.792l0,-4.459l-18.75,-10.791Z" style="fill-rule:nonzero;"/><path d="M154.958,196.292l0,4.5l18.75,10.791l0,-4.458l-18.75,-10.833Z" style="fill-rule:nonzero;"/><path d="M296.375,282.333l0,-4.458l-115.625,-66.708l0,4.458l115.625,66.708Z" style="fill-rule:nonzero;"/><path d="M154.958,220.75l0,4.458l18.75,10.834l0,-4.459l-18.75,-10.833Z" style="fill-rule:nonzero;"/><path d="M154.958,228.917l0,4.458l18.75,10.792l0,-4.459l-18.75,-10.791Z" style="fill-rule:nonzero;"/><path d="M154.958,261.5l0,4.458l18.75,10.792l0,-4.458l-18.75,-10.792Z" style="fill-rule:nonzero;"/><path d="M154.958,269.625l0,4.458l18.75,10.834l0,-4.459l-18.75,-10.833Z" style="fill-rule:nonzero;"/><path d="M253.667,326.583l-72.917,-42.083l0,4.458l72.917,42.084l-0,-4.459Z" style="fill-rule:nonzero;"/><path d="M257.542,328.792l-0,4.458l38.833,22.417l0,-4.459l-38.833,-22.416Z" style="fill-rule:nonzero;"/><path d="M217.375,297.5l-36.625,-21.125l0,4.458l36.625,21.125l0,-4.458Z" style="fill-rule:nonzero;"/><path d="M221.208,299.708l0,4.459l75.167,43.333l0,-4.458l-75.167,-43.334Z" style="fill-rule:nonzero;"/><path d="M286.5,312.917l0,4.458l9.875,5.708l0,-4.458l-9.875,-5.708Z" style="fill-rule:nonzero;"/><path d="M232.667,273.75l-51.917,-30l0,4.458l51.917,30l-0,-4.458Z" style="fill-rule:nonzero;"/><path d="M211.417,196.25l-30.667,-17.667l0,4.459l30.667,17.666l-0,-4.458Z" style="fill-rule:nonzero;"/><path d="M261.667,225.25l-46.417,-26.75l-0,4.458l46.417,26.75l-0,-4.458Z" style="fill-rule:nonzero;"/><path d="M234.625,217.792l-32.708,-18.834l-0,4.459l32.708,18.833l0,-4.458Z" style="fill-rule:nonzero;"/><path d="M268.917,237.583l-30.459,-17.541l0,4.458l30.459,17.542l-0,-4.459Z" style="fill-rule:nonzero;"/><path d="M272.75,239.792l0,4.458l23.625,13.625l0,-4.458l-23.625,-13.625Z" style="fill-rule:nonzero;"/><path d="M186.792,198.375l-0,4.458l24.625,14.209l-0,-4.459l-24.625,-14.208Z" style="fill-rule:nonzero;"/><path d="M286.75,256l-71.5,-41.208l0,4.458l71.5,41.25l0,-4.5Z" style="fill-rule:nonzero;"/><path d="M245.792,256.875l-46.709,-26.958l0,4.458l46.709,26.958l-0,-4.458Z" style="fill-rule:nonzero;"/><path d="M286.75,280.458l-37.083,-21.375l-0,4.459l37.083,21.375l0,-4.459Z" style="fill-rule:nonzero;"/><path d="M282.625,302.542l-46.083,-26.584l-0,4.459l46.083,26.583l0,-4.458Z" style="fill-rule:nonzero;"/><path d="M257.542,296.208l-0,4.459l25.083,14.5l-0,-4.459l-25.083,-14.5Z" style="fill-rule:nonzero;"/><path d="M189.792,257.125l-9.042,-5.208l0,4.458l9.042,5.208l-0,-4.458Z" style="fill-rule:nonzero;"/><path d="M206.708,266.917l0,4.458l46.959,27.083l-0,-4.458l-46.959,-27.083Z" style="fill-rule:nonzero;"/><path d="M202.875,264.667l-9.25,-5.334l0,4.459l9.25,5.333l0,-4.458Z" style="fill-rule:nonzero;"/><path d="M245,297.125l-51.375,-29.625l0,4.458l51.375,29.625l0,-4.458Z" style="fill-rule:nonzero;"/></g><path d="M713.708,221.708l-58.041,-33.333c-0.663,-0.415 -1.43,-0.636 -2.212,-0.636c-2.286,0 -4.167,1.881 -4.167,4.167c-0,0.059 0.001,0.118 0.004,0.177l-0,69.459c-0.056,3.421 1.749,6.615 4.708,8.333l58.042,33.542c0.7,0.489 1.534,0.752 2.388,0.752c2.286,0 4.167,-1.881 4.167,-4.166c-0,-0.113 -0.005,-0.225 -0.014,-0.336l0,-69.5c-0.011,-3.48 -1.87,-6.704 -4.875,-8.459Z" style="fill-opacity:0.2;fill-rule:nonzero;"/><path d="M792.958,87.458l-58.041,-33.333c-0.663,-0.415 -1.429,-0.635 -2.211,-0.635c-2.286,0 -4.167,1.881 -4.167,4.167c0,0.045 0.001,0.09 0.003,0.135l-0,69.333c-0.075,3.436 1.755,6.646 4.75,8.333l58.041,33.584c0.692,0.472 1.511,0.724 2.348,0.724c2.286,0 4.167,-1.881 4.167,-4.166c0,-0.117 -0.005,-0.234 -0.015,-0.35l0,-69.167c0.084,-3.547 -1.792,-6.867 -4.875,-8.625Z" style="fill-opacity:0.2;fill-rule:nonzero;"/><path d="M972.167,450.708l-58.042,-33.333c-0.663,-0.415 -1.429,-0.635 -2.211,-0.635c-2.285,0 -4.166,1.881 -4.166,4.167c-0,0.045 0.001,0.09 0.002,0.135l0,69.5c-0.074,3.436 1.755,6.646 4.75,8.333l58,33.583c0.701,0.492 1.536,0.756 2.392,0.756c2.286,-0 4.167,-1.881 4.167,-4.167c0,-0.127 -0.006,-0.254 -0.017,-0.38l-0,-69.167c0.146,-3.606 -1.739,-7.006 -4.875,-8.792Z" style="fill-opacity:0.2;fill-rule:nonzero;"/><path d="M466.958,279.75l-58.041,-33.333c-0.654,-0.399 -1.404,-0.61 -2.17,-0.61c-2.286,0 -4.166,1.881 -4.166,4.167c-0,0.05 0.001,0.101 0.002,0.151l0,69.458c-0.046,3.419 1.756,6.609 4.709,8.334l58.041,33.541c0.7,0.49 1.534,0.753 2.389,0.753c2.286,-0 4.167,-1.881 4.167,-4.167c-0,-0.112 -0.005,-0.224 -0.014,-0.336l0,-69.5c-0.012,-3.49 -1.889,-6.72 -4.917,-8.458Z" style="fill-opacity:0.2;fill-rule:nonzero;"/><path d="M248.5,850.708c-15.417,0 -10.375,-11.583 -10.375,-11.583c-22.833,-6.958 -34.083,-3.083 -34.083,-3.083c-3.427,12.099 -4.655,24.716 -3.625,37.25c-0,2.375 1.666,3.833 3.916,4.708c12.292,4.542 23.5,7.583 46.375,5.375c16.875,-1.667 34.709,-17.25 30.667,-33.333c-2.542,-9.917 -17.25,0.5 -32.875,0.666Z" style="fill:#933e31;fill-rule:nonzero;"/><path d="M241.875,705.875c-4.5,-5.875 -12.25,-10.875 -25,-7.5l-137.75,26.583l5.167,35.375c14.105,16.843 37.018,23.669 58.041,17.292c21.638,-6.03 42.195,-15.423 60.917,-27.833l-4.75,97.75c13.744,3.7 28.401,1.937 40.875,-4.917c3.208,-1.958 6.208,-96.125 7.208,-120.292c0.703,-5.893 -0.995,-11.828 -4.708,-16.458Z" style="fill:#1c75bc;fill-rule:nonzero;"/><path d="M314.625,878.958c-16,0 -10.75,-12.041 -10.75,-12.041c-23.75,-7.209 -35.417,-3.209 -35.417,-3.209c-3.535,12.564 -4.818,25.656 -3.791,38.667c0.101,2.391 1.824,4.425 4.166,4.917c12.792,4.75 24.417,7.875 48.167,5.583c17.5,-1.708 36.042,-17.917 31.833,-34.583c-2.708,-10.334 -18,0.5 -34.208,0.666Z" style="fill:#9d4d36;fill-rule:nonzero;"/><path d="M158.042,840.083l-118.25,-68.375l-0,16.667l118.291,68.167l-0.041,-16.459Z" style="fill:#bbcee1;fill-rule:nonzero;"/><path d="M147.292,709.958l-107.5,61.75l118.25,68.375l107.625,-61.833l-118.375,-68.292Z" style="fill-rule:nonzero;"/><path d="M265.667,778.25l-107.625,61.833l0.041,16.459l107.584,-62.25l-0,-16.042Z" style="fill:#a7bcce;fill-rule:nonzero;"/><path d="M307.75,728.542c-4.667,-6.084 -12.5,-11.292 -26.042,-7.792l-143.041,27.583l5.458,36.709c14.639,17.487 38.425,24.577 60.25,17.958c22.471,-6.257 43.817,-16.015 63.25,-28.917l-4.833,101.375c14.258,3.867 29.476,2.044 42.416,-5.083c3.375,-2.042 6.5,-99.792 7.5,-125c0.642,-6.044 -1.143,-12.102 -4.958,-16.833Z" style="fill:#2a87c6;fill-rule:nonzero;"/><path d="M52.167,521.625l244.25,-141.667c10.3,-5.947 23.032,-5.947 33.333,0l384.75,222.584c4.557,2.621 7.375,7.493 7.375,12.75c0,5.257 -2.818,10.129 -7.375,12.75l-238.792,138.625c-12.291,7.116 -27.5,7.116 -39.791,-0l-383.875,-222.084c-4.11,-2.338 -6.656,-6.716 -6.656,-11.444c0,-4.778 2.602,-9.196 6.781,-11.514Z" style="fill:#e8ebf5;fill-rule:nonzero;"/><path d="M52.208,544.458l383.875,222.084c12.292,7.116 27.5,7.116 39.792,-0l238.792,-138.625c4.476,-2.575 7.27,-7.336 7.333,-12.5l0,18.583c-0.029,5.162 -2.813,9.934 -7.292,12.5l-238.833,138.542c-12.292,7.116 -27.5,7.116 -39.792,-0l-383.875,-222.084c-4.134,-2.356 -6.675,-6.783 -6.625,-11.541l0,-18.25c0.014,4.676 2.55,8.998 6.625,11.291Z" style="fill:#a7bcce;fill-rule:nonzero;"/><path d="M52.208,544.458l383.875,222.084c5.543,3.185 11.779,4.972 18.167,5.208l0,18.417c-6.385,-0.256 -12.616,-2.042 -18.167,-5.209l-383.875,-222.083c-4.134,-2.356 -6.675,-6.783 -6.625,-11.542l0,-18.25c-0.016,4.706 2.524,9.068 6.625,11.375Z" style="fill:#bbcee1;fill-rule:nonzero;"/><path d="M232.625,572.875l41.458,-23.958c1.945,-1.123 4.348,-1.123 6.292,-0l128.042,74.041c0.841,0.504 1.358,1.415 1.358,2.396c0,0.981 -0.517,1.893 -1.358,2.396l-40.459,23.375c-2.304,1.331 -5.153,1.331 -7.458,0l-127.875,-73.917c-0.753,-0.461 -1.213,-1.283 -1.213,-2.166c0,-0.883 0.46,-1.705 1.213,-2.167Z" style="fill:#0f4463;fill-rule:nonzero;"/><path d="M232.625,577.208l127.875,73.917c2.305,1.331 5.154,1.331 7.458,0l40.459,-23.375c0.86,-0.497 1.387,-1.423 1.375,-2.417l-0,4.917c-0.034,0.97 -0.551,1.862 -1.375,2.375l-40.459,23.25c-2.304,1.331 -5.153,1.331 -7.458,0l-127.875,-73.75c-0.777,-0.437 -1.245,-1.276 -1.208,-2.167l-0,-4.916c-0.001,0.882 0.457,1.704 1.208,2.166Z" style="fill:#0b3b56;fill-rule:nonzero;"/><path d="M273.625,555.625l5.167,-3l5.916,3.375l-5.166,3l-5.917,-3.375Z" style="fill:#1f5e77;fill-rule:nonzero;"/><path d="M280.958,559.875l5.209,-3.042l5.875,3.417l-5.167,3l-5.917,-3.375Z" style="fill:#1f5e77;fill-rule:nonzero;"/><path d="M288.333,564.083l5.167,-3l5.917,3.417l-5.167,3l-5.917,-3.417Z" style="fill:#1f5e77;fill-rule:nonzero;"/><path d="M295.667,568.333l5.208,-3l5.917,3.375l-5.209,3l-5.916,-3.375Z" style="fill:#1f5e77;fill-rule:nonzero;"/><path d="M303.042,572.583l5.208,-3.041l5.875,3.416l-5.167,3l-5.916,-3.375Z" style="fill:#1f5e77;fill-rule:nonzero;"/><path d="M310.417,576.792l5.166,-3l5.917,3.416l-5.167,3l-5.916,-3.416Z" style="fill:#1f5e77;fill-rule:nonzero;"/><path d="M317.75,581.042l5.208,-3l5.875,3.375l-5.166,3l-5.917,-3.375Z" style="fill:#1f5e77;fill-rule:nonzero;"/><path d="M325.125,585.292l5.167,-3.042l5.916,3.417l-5.166,3l-5.917,-3.375Z" style="fill:#1f5e77;fill-rule:nonzero;"/><path d="M332.458,589.5l5.209,-3l5.875,3.417l-5.167,3l-5.917,-3.417Z" style="fill:#1f5e77;fill-rule:nonzero;"/><path d="M339.833,593.75l5.209,-3l5.875,3.375l-5.167,3l-5.917,-3.375Z" style="fill:#1f5e77;fill-rule:nonzero;"/><path d="M347.208,597.958l5.167,-3l5.917,3.417l-5.167,3l-5.917,-3.417Z" style="fill:#1f5e77;fill-rule:nonzero;"/><path d="M354.542,602.208l5.208,-3l5.875,3.417l-5.167,2.958l-5.916,-3.375Z" style="fill:#1f5e77;fill-rule:nonzero;"/><path d="M367.083,603.417l5.917,3.416l-5.167,3l-5.916,-3.375l5.166,-3.041Z" style="fill:#1f5e77;fill-rule:nonzero;"/><path d="M272.792,562.917l-5.875,-3.417l5.166,-3l5.917,3.417l-5.208,3Z" style="fill:#1f5e77;fill-rule:nonzero;"/><path d="M285.333,564.125l-5.166,3l-5.917,-3.375l5.208,-3l5.875,3.375Z" style="fill:#1f5e77;fill-rule:nonzero;"/><path d="M292.708,568.375l-5.166,3l-5.917,-3.375l5.167,-3.042l5.916,3.417Z" style="fill:#1f5e77;fill-rule:nonzero;"/><path d="M300.042,572.625l-5.167,3l-5.917,-3.417l5.209,-3l5.875,3.417Z" style="fill:#1f5e77;fill-rule:nonzero;"/><path d="M307.417,576.833l-5.167,3l-5.917,-3.375l5.167,-3l5.917,3.375Z" style="fill:#1f5e77;fill-rule:nonzero;"/><path d="M314.792,581.083l-5.209,3l-5.916,-3.375l5.208,-3.041l5.917,3.416Z" style="fill:#1f5e77;fill-rule:nonzero;"/><path d="M322.125,585.333l-5.167,3l-5.916,-3.416l5.208,-3l5.875,3.416Z" style="fill:#1f5e77;fill-rule:nonzero;"/><path d="M329.5,589.542l-5.167,3l-5.916,-3.375l5.166,-3l5.917,3.375Z" style="fill:#1f5e77;fill-rule:nonzero;"/><path d="M336.833,593.792l-5.166,3l-5.917,-3.375l5.208,-3.042l5.875,3.417Z" style="fill:#1f5e77;fill-rule:nonzero;"/><path d="M344.208,598.042l-5.166,3l-5.917,-3.417l5.167,-3l5.916,3.417Z" style="fill:#1f5e77;fill-rule:nonzero;"/><path d="M351.583,602.25l-5.208,3l-5.917,-3.375l5.209,-3l5.916,3.375Z" style="fill:#1f5e77;fill-rule:nonzero;"/><path d="M358.917,606.5l-5.167,3l-5.917,-3.375l5.167,-3.042l5.917,3.417Z" style="fill:#1f5e77;fill-rule:nonzero;"/><path d="M360.375,607.333l5.917,3.375l-5.167,3.042l-5.917,-3.417l5.167,-3Z" style="fill:#1f5e77;fill-rule:nonzero;"/><path d="M266.083,566.792l-5.916,-3.375l5.208,-3l5.875,3.375l-5.167,3Z" style="fill:#1f5e77;fill-rule:nonzero;"/><path d="M278.625,568.042l-5.167,3l-5.916,-3.417l5.166,-3l5.917,3.417Z" style="fill:#1f5e77;fill-rule:nonzero;"/><path d="M274.875,571.875l5.208,-3l5.917,3.375l-5.208,3l-5.917,-3.375Z" style="fill:#1f5e77;fill-rule:nonzero;"/><path d="M293.333,576.5l-5.166,3l-5.917,-3.375l5.208,-3.042l5.875,3.417Z" style="fill:#1f5e77;fill-rule:nonzero;"/><path d="M300.708,580.75l-5.166,3l-5.917,-3.417l5.167,-3l5.916,3.417Z" style="fill:#1f5e77;fill-rule:nonzero;"/><path d="M308.042,584.958l-5.167,3l-5.917,-3.375l5.209,-3l5.875,3.375Z" style="fill:#1f5e77;fill-rule:nonzero;"/><path d="M315.417,589.208l-5.167,3l-5.917,-3.375l5.167,-3.041l5.917,3.416Z" style="fill:#1f5e77;fill-rule:nonzero;"/><path d="M322.792,593.458l-5.209,3l-5.916,-3.416l5.208,-3l5.917,3.416Z" style="fill:#1f5e77;fill-rule:nonzero;"/><path d="M330.125,597.667l-5.167,3l-5.916,-3.375l5.208,-3l5.875,3.375Z" style="fill:#1f5e77;fill-rule:nonzero;"/><path d="M337.5,601.917l-5.167,3l-5.916,-3.375l5.166,-3.042l5.917,3.417Z" style="fill:#1f5e77;fill-rule:nonzero;"/><path d="M344.833,606.167l-5.166,3l-5.917,-3.417l5.208,-3l5.875,3.417Z" style="fill:#1f5e77;fill-rule:nonzero;"/><path d="M341.125,610l5.167,-3l5.916,3.375l-5.166,3l-5.917,-3.375Z" style="fill:#1f5e77;fill-rule:nonzero;"/><path d="M353.667,611.208l5.916,3.417l-5.208,3l-5.917,-3.417l5.209,-3Z" style="fill:#1f5e77;fill-rule:nonzero;"/><path d="M259.375,570.708l-5.917,-3.416l5.209,-3l5.875,3.416l-5.167,3Z" style="fill:#1f5e77;fill-rule:nonzero;"/><path d="M260.833,571.542l5.167,-3.042l5.917,3.417l-5.167,3l-5.917,-3.375Z" style="fill:#1f5e77;fill-rule:nonzero;"/><path d="M268.167,575.75l5.208,-3l5.875,3.417l-5.167,3l-5.916,-3.417Z" style="fill:#1f5e77;fill-rule:nonzero;"/><path d="M275.542,580l5.208,-3l5.875,3.375l-5.167,3l-5.916,-3.375Z" style="fill:#1f5e77;fill-rule:nonzero;"/><path d="M282.875,584.25l5.208,-3.042l5.917,3.417l-5.208,3l-5.917,-3.375Z" style="fill:#1f5e77;fill-rule:nonzero;"/><path d="M290.25,588.458l5.208,-3l5.875,3.417l-5.166,3l-5.917,-3.417Z" style="fill:#1f5e77;fill-rule:nonzero;"/><path d="M297.625,592.708l5.167,-3l5.916,3.375l-5.166,3l-5.917,-3.375Z" style="fill:#1f5e77;fill-rule:nonzero;"/><path d="M304.958,596.958l5.209,-3.041l5.875,3.416l-5.167,3l-5.917,-3.375Z" style="fill:#1f5e77;fill-rule:nonzero;"/><path d="M312.333,601.167l5.167,-3l5.917,3.416l-5.167,3l-5.917,-3.416Z" style="fill:#1f5e77;fill-rule:nonzero;"/><path d="M319.667,605.417l5.208,-3l5.917,3.375l-5.209,3l-5.916,-3.375Z" style="fill:#1f5e77;fill-rule:nonzero;"/><path d="M327.042,609.667l5.208,-3.042l5.875,3.417l-5.167,3l-5.916,-3.375Z" style="fill:#1f5e77;fill-rule:nonzero;"/><path d="M334.417,613.875l5.166,-3l5.917,3.417l-5.167,3l-5.916,-3.417Z" style="fill:#1f5e77;fill-rule:nonzero;"/><path d="M346.958,615.125l5.875,3.375l-5.166,3l-5.917,-3.375l5.208,-3Z" style="fill:#1f5e77;fill-rule:nonzero;"/><path d="M252.667,574.583l-5.917,-3.375l5.208,-3.041l5.875,3.416l-5.166,3Z" style="fill:#1f5e77;fill-rule:nonzero;"/><path d="M254.083,575.417l5.209,-3l5.916,3.375l-5.166,3l-5.959,-3.375Z" style="fill:#1f5e77;fill-rule:nonzero;"/><path d="M261.458,579.667l5.209,-3l5.875,3.375l-5.167,3l-5.917,-3.375Z" style="fill:#1f5e77;fill-rule:nonzero;"/><path d="M268.833,583.875l5.167,-3l5.917,3.417l-5.167,3l-5.917,-3.417Z" style="fill:#1f5e77;fill-rule:nonzero;"/><path d="M276.167,588.125l5.208,-3l5.875,3.417l-5.167,3l-5.916,-3.417Z" style="fill:#1f5e77;fill-rule:nonzero;"/><path d="M283.542,592.375l5.208,-3.042l5.875,3.417l-5.167,3l-5.916,-3.375Z" style="fill:#1f5e77;fill-rule:nonzero;"/><path d="M290.875,596.583l5.208,-3l5.917,3.417l-5.208,3l-5.917,-3.417Z" style="fill:#1f5e77;fill-rule:nonzero;"/><path d="M298.25,600.833l5.208,-3l5.875,3.375l-5.166,3l-5.917,-3.375Z" style="fill:#1f5e77;fill-rule:nonzero;"/><path d="M305.625,605.083l5.167,-3.041l5.916,3.416l-5.166,3l-5.917,-3.375Z" style="fill:#1f5e77;fill-rule:nonzero;"/><path d="M312.958,609.292l5.209,-3l5.875,3.416l-5.167,3l-5.917,-3.416Z" style="fill:#1f5e77;fill-rule:nonzero;"/><path d="M320.333,613.542l5.167,-3l5.917,3.375l-5.167,3l-5.917,-3.375Z" style="fill:#1f5e77;fill-rule:nonzero;"/><path d="M327.667,617.792l5.208,-3.042l5.917,3.417l-5.209,3l-5.916,-3.375Z" style="fill:#1f5e77;fill-rule:nonzero;"/><path d="M340.25,619l5.875,3.417l-5.167,3l-5.916,-3.417l5.208,-3Z" style="fill:#1f5e77;fill-rule:nonzero;"/><path d="M245.208,572.083l5.917,3.375l-5.167,3l-5.916,-3.375l5.166,-3Z" style="fill:#1f5e77;fill-rule:nonzero;"/><path d="M258.458,579.708l-5.166,3l-5.917,-3.416l5.208,-3l5.875,3.416Z" style="fill:#1f5e77;fill-rule:nonzero;"/><path d="M265.833,583.958l-5.166,3l-5.917,-3.416l5.167,-3l5.916,3.416Z" style="fill:#1f5e77;fill-rule:nonzero;"/><path d="M273.208,588.167l-5.166,3l-5.917,-3.375l5.167,-3.042l5.916,3.417Z" style="fill:#1f5e77;fill-rule:nonzero;"/><path d="M280.542,592.417l-5.167,3l-5.917,-3.417l5.209,-3l5.875,3.417Z" style="fill:#1f5e77;fill-rule:nonzero;"/><path d="M287.917,596.625l-5.167,3l-5.917,-3.375l5.167,-3l5.917,3.375Z" style="fill:#1f5e77;fill-rule:nonzero;"/><path d="M289.375,597.5l7.333,4.208l0.042,0l1.417,0.834l5.916,3.416l3,1.709l4.375,2.5l4.625,2.708l8.625,4.958l-5.166,3l-9,-5.208l-4.292,-2.417l-4.458,-2.583l-2.917,-1.667l0.042,0l-5.834,-3.333l-1.541,-0.917l-7.375,-4.208l5.208,-3Z" style="fill:#1f5e77;fill-rule:nonzero;"/><path d="M332.042,622.042l-5.167,3l-5.917,-3.375l5.209,-3l5.875,3.375Z" style="fill:#1f5e77;fill-rule:nonzero;"/><path d="M339.417,626.292l-5.167,3l-5.917,-3.375l5.167,-3.042l5.917,3.417Z" style="fill:#1f5e77;fill-rule:nonzero;"/><path d="M376.625,614.917l5.167,-3l5.916,3.375l-5.166,3l-5.917,-3.375Z" style="fill:#1f5e77;fill-rule:nonzero;"/><path d="M384,619.167l5.167,-3.042l5.916,3.417l-5.208,3l-5.875,-3.375Z" style="fill:#1f5e77;fill-rule:nonzero;"/><path d="M391.333,623.375l5.209,-3l5.875,3.417l-5.167,3l-5.917,-3.417Z" style="fill:#1f5e77;fill-rule:nonzero;"/><path d="M381,619.208l-5.167,3l-5.916,-3.416l5.166,-3l5.917,3.416Z" style="fill:#1f5e77;fill-rule:nonzero;"/><path d="M388.333,623.417l-5.166,3l-5.917,-3.375l5.208,-3l5.875,3.375Z" style="fill:#1f5e77;fill-rule:nonzero;"/><path d="M395.708,627.667l-5.166,3l-5.917,-3.375l5.167,-3.042l5.916,3.417Z" style="fill:#1f5e77;fill-rule:nonzero;"/><path d="M374.292,623.083l-5.209,3l-5.875,-3.375l5.167,-3.041l5.917,3.416Z" style="fill:#1f5e77;fill-rule:nonzero;"/><path d="M381.625,627.333l-5.167,3l-5.916,-3.416l5.208,-3l5.875,3.416Z" style="fill:#1f5e77;fill-rule:nonzero;"/><path d="M389,631.542l-5.167,3l-5.916,-3.375l5.166,-3l5.917,3.375Z" style="fill:#1f5e77;fill-rule:nonzero;"/><path d="M356.458,626.583l5.209,-3l5.916,3.375l-5.208,3l-5.917,-3.375Z" style="fill:#1f5e77;fill-rule:nonzero;"/><path d="M363.833,630.833l5.167,-3.041l5.917,3.416l-5.167,3l-5.917,-3.375Z" style="fill:#1f5e77;fill-rule:nonzero;"/><path d="M371.167,635.042l5.208,-3l5.917,3.416l-5.209,3l-5.916,-3.416Z" style="fill:#1f5e77;fill-rule:nonzero;"/><path d="M349.75,630.458l5.208,-3l5.875,3.417l-5.166,3l-5.917,-3.417Z" style="fill:#1f5e77;fill-rule:nonzero;"/><path d="M357.125,634.708l5.167,-3l5.916,3.375l-5.166,3l-5.917,-3.375Z" style="fill:#1f5e77;fill-rule:nonzero;"/><path d="M364.458,638.958l5.209,-3.041l5.916,3.416l-5.208,3l-5.917,-3.375Z" style="fill:#1f5e77;fill-rule:nonzero;"/><path d="M354.125,634.75l-5.167,3l-5.916,-3.375l5.208,-3l5.875,3.375Z" style="fill:#1f5e77;fill-rule:nonzero;"/><path d="M361.5,639l-5.167,3l-5.916,-3.417l5.166,-3l5.917,3.417Z" style="fill:#1f5e77;fill-rule:nonzero;"/><path d="M324.583,533.125l40.792,-23.667c1.718,-1.022 3.865,-1.022 5.583,0l96.75,55.875c0.717,0.449 1.154,1.238 1.154,2.084c-0,0.845 -0.437,1.634 -1.154,2.083l-39.875,23.125c-2.04,1.208 -4.585,1.208 -6.625,0l-96.625,-55.75c-0.647,-0.403 -1.041,-1.113 -1.041,-1.875c-0,-0.762 0.394,-1.472 1.041,-1.875Z" style="fill:#1f5e77;fill-rule:nonzero;"/><path d="M324.583,536.917l96.625,55.75c2.04,1.208 4.585,1.208 6.625,-0l39.875,-23.125c0.745,-0.45 1.203,-1.256 1.209,-2.125l-0,5.125c-0.004,0.859 -0.465,1.654 -1.209,2.083l-39.875,22.917c-2.047,1.182 -4.577,1.182 -6.625,-0l-96.625,-55.792c-0.675,-0.4 -1.089,-1.131 -1.083,-1.917l0,-4.791c0.009,0.77 0.42,1.482 1.083,1.875Z" style="fill:#07304b;fill-rule:nonzero;"/><path d="M324.583,536.917l96.625,55.75c0.913,0.534 1.944,0.835 3,0.875l0,4.958c-1.053,-0.026 -2.084,-0.312 -3,-0.833l-96.625,-55.792c-0.675,-0.4 -1.089,-1.131 -1.083,-1.917l0,-4.916c0.009,0.77 0.42,1.482 1.083,1.875Z" style="fill:#0b3b56;fill-rule:nonzero;"/><path d="M430.375,536.833l-75.167,-43.541l0,37.25l75.167,43.5l0,-37.209Z" style="fill:#0f4463;fill-rule:nonzero;"/><path d="M365.667,487.292l-10.459,6l75.167,43.541l10.5,-6.041l-75.208,-43.5Z" style="fill:#07304b;fill-rule:nonzero;"/><path d="M440.875,530.792l-10.5,6.041l0,37.209l10.5,-6.084l0,-37.166Z" style="fill:#07304b;fill-rule:nonzero;"/><path d="M279.167,303.708l228.583,132.584l0,168.166l-228.583,-133.083l-0,-167.667Z" style="fill:url(#_Linear1);fill-rule:nonzero;"/><path d="M507.75,436.292l7.583,-4.625l0,168.208l-7.583,4.583l0,-168.166Z" style="fill:#07304b;fill-rule:nonzero;"/><path d="M279.167,303.708l7.791,-4.5l228.375,132.459l-7.583,4.625l-228.583,-132.584Z" style="fill:#1f5e77;fill-rule:nonzero;"/><path d="M279.167,303.75l-0,167.667l228.583,133.083l0,-168.208l-228.583,-132.542Zm223.291,291.333l-217.875,-126.708l0,-155.25l217.875,126.292l0,155.666Z" style="fill:#0b3b56;fill-rule:nonzero;"/><path d="M194.542,511.375c-2.375,24.042 -20.084,41.958 -39.584,40.042c-19.5,-1.917 -33.333,-22.959 -30.958,-47c2.375,-24.042 20.083,-41.917 39.542,-40c19.458,1.916 33.375,22.958 31,46.958Z" style="fill:#fed4bd;fill-rule:nonzero;"/><path d="M223.667,567.375c-0,0 8.333,2.042 11.416,2.333c3.084,0.292 14.084,2.625 18.625,1.25c4.542,-1.375 -4.166,-4.416 -6.125,-5.958c-1.958,-1.542 -2,-5.5 2.584,-6.875c4.583,-1.375 15,-0.75 20.5,-1.542c5.5,-0.791 -5.459,-17.416 -14.417,-18.958c-8.321,-1.67 -16.967,-0.496 -24.542,3.333c-7.625,3.75 -11.791,10.125 -15.333,11.334l7.292,15.083Z" style="fill:#f4c5a2;fill-rule:nonzero;"/><path d="M224.667,544.708l-57.959,14.542l-2.916,36.792l68.416,-23.5c1.417,-12.959 -7.541,-27.834 -7.541,-27.834Z" style="fill:#ed5561;fill-rule:nonzero;"/><path d="M81.625,560.292c-0,-0 -16.042,20.166 -0,48c-0,-0 11.208,15.5 41.958,0.291l-41.958,-48.291Z" style="fill:#ed5561;fill-rule:nonzero;"/><path d="M129.25,536.708c0,0 25,-1.708 44.542,11.959c1.096,2.725 2.964,5.071 5.375,6.75c3.916,2.625 23.375,10.416 23.375,10.416c-0,0 -8.584,114.042 1.25,169.584c-0,-0 -42.209,32.958 -108.334,-0c0,-0 -9.625,-140.042 -13.875,-175c0.042,-0.125 11.167,-13.709 47.667,-23.709Z" style="fill:#de495a;fill-rule:nonzero;"/><path d="M118.25,724.958l-118.25,-68.375l39.792,115.292l118.291,68.208l-39.833,-115.125Z" style="fill:#bbcee1;fill-rule:nonzero;"/><path d="M13.042,649l-13.042,7.583l118.25,68.375l13.208,-7.666l-118.416,-68.292Z" style="fill-rule:nonzero;"/><path d="M131.458,717.292l-13.208,7.666l39.833,115.125l13.334,-7.666l-39.959,-115.125Z" style="fill:#a7bcce;fill-rule:nonzero;"/><path d="M301.583,617.917c0,-0 6.459,-6.5 8.917,-8.334c2.458,-1.833 11.125,-10.041 16,-11.125c4.875,-1.083 -3.417,7.375 -4.458,10c-1.042,2.625 5,-2.125 9.541,-3.833c5.066,-1.665 10.563,-1.473 15.5,0.542c11.209,4.166 10.667,26.375 1.5,23.75c-15.041,-4.167 -21.791,7.583 -30.791,10.083c-4.175,1.08 -8.422,1.859 -12.709,2.333l-3.5,-23.416Z" style="fill:#f4c5a2;fill-rule:nonzero;"/><path d="M202.458,565.833l48.875,64.792l50.834,-15c-0,0 10.916,13.75 7.375,28.292l-67.834,26.416l-55.125,-60.625c0,0 -18.375,-38.5 15.875,-43.875Z" style="fill:#ed5561;fill-rule:nonzero;"/><path d="M175.292,443.875c-0,0 3.75,9.042 -14.25,11.5c-18,2.458 -40.209,11.375 -46.084,30.375c-3.75,12.125 0.584,25 6.709,35.75c2.05,3.684 4.435,7.171 7.125,10.417c9.103,1.696 18.52,0.084 26.541,-4.542c6.131,-4.533 11.043,-10.518 14.292,-17.417c3.249,-6.898 10.708,4.459 14.042,-4.458c2.458,-6.583 10.208,-8.333 14.416,-11.792c0.209,0 24.292,-39.708 -22.791,-49.833Z" style="fill:#9d4d36;fill-rule:nonzero;"/><path d="M846.458,788.917l-78.375,-45.459l0,29.334l78.375,45.333l0,-29.208Z" style="fill:#bbcee1;fill-rule:nonzero;"/><path d="M849.083,696.917l-81,46.541l78.375,45.459l81.084,-46.584l-78.459,-45.416Z" style="fill-rule:nonzero;"/><path d="M927.542,742.333l-81.084,46.584l0,29.208l81.084,-46.917l-0,-28.875Z" style="fill:#a7bcce;fill-rule:nonzero;"/><path d="M846.458,741l-78.375,-45.5l0,29.333l78.375,45.334l0,-29.167Z" style="fill:#bbcee1;fill-rule:nonzero;"/><path d="M849.083,648.958l-81,46.542l78.375,45.5l81.084,-46.625l-78.459,-45.417Z" style="fill-rule:nonzero;"/><path d="M927.542,694.375l-81.084,46.625l0,29.167l81.084,-46.917l-0,-28.875Z" style="fill:#a7bcce;fill-rule:nonzero;"/><path d="M713.917,865.667l-78.334,-45.5l0,29.333l78.375,45.333l-0.041,-29.166Z" style="fill:#bbcee1;fill-rule:nonzero;"/><path d="M716.583,773.625l-81,46.542l78.334,45.5l81.125,-46.625l-78.459,-45.417Z" style="fill-rule:nonzero;"/><path d="M795.042,819.042l-81.125,46.625l0.041,29.166l81.084,-46.916l-0,-28.875Z" style="fill:#a7bcce;fill-rule:nonzero;"/><path d="M713.917,817.708l-78.334,-45.458l0,29.292l78.375,45.375l-0.041,-29.209Z" style="fill:#bbcee1;fill-rule:nonzero;"/><path d="M716.583,725.708l-81,46.542l78.334,45.458l81.125,-46.583l-78.459,-45.417Z" style="fill-rule:nonzero;"/><path d="M795.042,771.125l-81.125,46.583l0.041,29.209l81.084,-46.917l-0,-28.875Z" style="fill:#a7bcce;fill-rule:nonzero;"/><path d="M581.417,942.375l-78.334,-45.458l0,29.291l78.334,45.375l-0,-29.208Z" style="fill:#bbcee1;fill-rule:nonzero;"/><path d="M584.083,850.375l-81,46.542l78.334,45.458l81.125,-46.583l-78.459,-45.417Z" style="fill-rule:nonzero;"/><path d="M662.542,895.792l-81.125,46.583l-0,29.208l81.125,-46.916l-0,-28.875Z" style="fill:#a7bcce;fill-rule:nonzero;"/><path d="M581.417,894.417l-78.334,-45.459l0,29.334l78.334,45.333l-0,-29.208Z" style="fill:#bbcee1;fill-rule:nonzero;"/><path d="M584.083,802.417l-81,46.541l78.334,45.459l81.125,-46.584l-78.459,-45.416Z" style="fill-rule:nonzero;"/><path d="M662.542,847.833l-81.125,46.584l-0,29.208l81.125,-46.917l-0,-28.875Z" style="fill:#a7bcce;fill-rule:nonzero;"/><path d="M605.875,865.75l-4.917,-2.875c-3.705,1.441 -7.587,2.38 -11.541,2.792l-0,4.166l-11.959,0l0,-4.166c-3.952,-0.422 -7.833,-1.36 -11.541,-2.792l-4.875,2.875l-8.334,-4.917l4.917,-2.833c-2.177,-1.751 -3.846,-4.053 -4.833,-6.667l-6.917,0l-0,-6.958l6.583,0c0.959,-2.607 2.6,-4.909 4.75,-6.667l-4.75,-2.666l8.334,-4.917l4.916,2.833c3.701,-1.403 7.565,-2.327 11.5,-2.75l0,-4.166l11.959,-0l-0,4.166c3.962,0.423 7.854,1.347 11.583,2.75l4.875,-2.833l8.333,4.917l-4.916,2.833c2.185,1.743 3.856,4.048 4.833,6.667l6.917,-0l-0,6.916l-6.667,0c-0.959,2.607 -2.6,4.909 -4.75,6.667l4.917,2.833l-8.417,4.792Zm-33.583,-11.458c6.973,3.538 15.234,3.538 22.208,-0c6.083,-3.584 6.042,-9.334 0,-12.875c-6.959,-3.538 -15.207,-3.538 -22.167,-0c-6.125,3.541 -6.083,9.291 0,12.875" style="fill:#1c75bc;fill-rule:nonzero;"/><path d="M722.542,751l7.625,16.25l7.625,16.292l-28.125,-4.375l-28.125,-4.334l41,-23.833Z" style="fill:#ef4136;fill-rule:nonzero;"/><path d="M818.417,690.917c-4.167,-2.459 -2.334,-6 5.75,-10.709c3.309,-1.95 6.911,-3.357 10.666,-4.166c2.566,-0.707 5.302,-0.471 7.709,0.666c0.826,0.445 1.528,1.09 2.041,1.875c0.405,0.667 0.727,1.381 0.959,2.125l7.416,-1.833c-0.425,-1.193 -1.092,-2.285 -1.958,-3.208c-0.914,-0.977 -1.984,-1.794 -3.167,-2.417c-4.203,-2.309 -9.041,-3.2 -13.791,-2.542c-5.898,0.75 -11.575,2.722 -16.667,5.792c-4.299,1.947 -7.811,5.298 -9.958,9.5c-1,3.042 0.458,5.667 4.166,7.958c2.559,1.488 5.395,2.438 8.334,2.792l5.75,-3.333c-2.544,-0.404 -4.998,-1.25 -7.25,-2.5Z" style="fill:#91a6b7;fill-rule:nonzero;"/><path d="M853.625,699.875c0.706,-1.75 0.706,-3.708 -0,-5.458c-0.531,-1.189 -0.733,-2.499 -0.583,-3.792c0.291,-1.056 1.041,-1.929 2.041,-2.375c1.115,-0.67 2.371,-1.069 3.667,-1.167c1.204,-0.062 2.401,0.213 3.458,0.792c0.847,0.481 1.596,1.117 2.209,1.875c0.449,0.666 0.853,1.363 1.208,2.083l7.333,-1.75c-1.15,-2.479 -3.083,-4.514 -5.5,-5.791c-2.831,-1.635 -6.065,-2.443 -9.333,-2.334c-3.374,0.022 -6.683,0.943 -9.583,2.667c-1.312,0.716 -2.494,1.645 -3.5,2.75c-0.672,0.841 -1.143,1.824 -1.375,2.875c-0.13,1.255 0.027,2.523 0.458,3.708c0.549,1.316 0.722,2.759 0.5,4.167c-0.257,1.103 -1.012,2.027 -2.042,2.5c-1.123,0.666 -2.402,1.025 -3.708,1.042c-1.36,0.034 -2.702,-0.312 -3.875,-1c-2.165,-1.291 -3.815,-3.295 -4.667,-5.667l-6.375,3.708c1.417,2.393 3.503,4.32 6,5.542c2.941,1.768 6.319,2.678 9.75,2.625c3.504,-0.088 6.924,-1.094 9.917,-2.917c1.714,-0.926 3.109,-2.35 4,-4.083Z" style="fill:#91a6b7;fill-rule:nonzero;"/><path d="M887.583,696c-2.833,-1.635 -6.063,-2.456 -9.333,-2.375c-3.373,0.067 -6.674,1 -9.583,2.708c-1.307,0.704 -2.478,1.636 -3.459,2.75c-0.704,0.82 -1.178,1.813 -1.375,2.875c-0.153,1.242 0.004,2.502 0.459,3.667c0.519,1.323 0.691,2.758 0.5,4.167c-0.317,1.073 -1.054,1.975 -2.042,2.5c-1.144,0.653 -2.433,1.012 -3.75,1.041c-1.346,0.036 -2.676,-0.311 -3.833,-1c-2.174,-1.279 -3.828,-3.287 -4.667,-5.666l-6.375,3.708c1.387,2.401 3.463,4.332 5.958,5.542c2.951,1.744 6.323,2.651 9.75,2.625c3.517,-0.089 6.95,-1.095 9.959,-2.917c1.747,-0.862 3.198,-2.226 4.166,-3.917c0.727,-1.76 0.727,-3.739 0,-5.5c-0.509,-1.18 -0.71,-2.471 -0.583,-3.75c0.32,-1.064 1.078,-1.943 2.083,-2.416c1.118,-0.655 2.374,-1.041 3.667,-1.125c1.205,-0.081 2.408,0.194 3.458,0.791c0.844,0.469 1.582,1.108 2.167,1.875c0.464,0.657 0.869,1.354 1.208,2.084l7.334,-1.792c-1.189,-2.543 -3.201,-4.614 -5.709,-5.875Z" style="fill:#91a6b7;fill-rule:nonzero;"/><path d="M844.708,434.292l-76.125,-43.875c-2.364,-1.388 -5.332,-1.273 -7.583,0.291l-16.667,9.625l7.792,10.542l2.875,3.333l-0,75.375c-0.009,4.487 2.398,8.647 6.292,10.875l56.958,32.959l0.583,3.166l11.625,16.292l17.875,-10.542c1.688,-1.042 2.715,-2.891 2.709,-4.875l-0,-91.666c0.104,-4.686 -2.318,-9.083 -6.334,-11.5Z" style="fill:#79ff68;fill-rule:nonzero;"/><path d="M826.917,444.75l-77,-44.417c-0.83,-0.456 -1.762,-0.695 -2.709,-0.695c-3.065,0 -5.595,2.505 -5.625,5.57l0,92.334c-0.024,4.501 2.385,8.681 6.292,10.916l76.958,44.5c0.877,0.497 1.868,0.758 2.876,0.758c3.171,0 5.792,-2.586 5.833,-5.758l-0,-92.083c-0.09,-4.612 -2.613,-8.849 -6.625,-11.125Z" style="fill:#50e85e;fill-rule:nonzero;"/><path d="M833.417,547.792l-0,-91.917c-0.036,-1.516 -0.346,-3.012 -0.917,-4.417l17.875,-10.291c0.499,1.335 0.781,2.742 0.833,4.166l0,91.667c0.007,1.983 -1.021,3.833 -2.708,4.875l-17.708,10.417c1.552,-0.985 2.532,-2.665 2.625,-4.5Z" style="fill:#3cc743;fill-rule:nonzero;"/><path d="M931.625,251l-76.125,-43.917c-2.385,-1.364 -5.351,-1.25 -7.625,0.292l-16.667,9.667l7.792,10.5l2.875,3.333l0,75.375c-0.024,4.501 2.385,8.681 6.292,10.917l56.958,32.916l0.583,3.167l11.625,16.292l17.875,-10.5c1.7,-1.031 2.732,-2.888 2.709,-4.875l-0,-91.667c0.148,-4.686 -2.266,-9.098 -6.292,-11.5Z" style="fill:#9263c1;fill-rule:nonzero;"/><path d="M914,261.458l-77,-44.458c-0.821,-0.438 -1.737,-0.667 -2.667,-0.667c-3.078,0 -5.621,2.507 -5.666,5.584l-0,92.291c-0.01,4.487 2.397,8.647 6.291,10.875l76.959,44.5c0.875,0.501 1.866,0.764 2.875,0.764c3.166,0 5.776,-2.597 5.791,-5.764l0,-92.041c-0.062,-4.598 -2.575,-8.829 -6.583,-11.084Z" style="fill:#8444b2;fill-rule:nonzero;"/><path d="M920.458,364.458l0,-91.916c-0.016,-1.514 -0.313,-3.012 -0.875,-4.417l17.875,-10.292c0.483,1.339 0.75,2.745 0.792,4.167l0,91.667c0.023,1.987 -1.009,3.844 -2.708,4.875l-17.75,10.416c1.563,-0.979 2.558,-2.658 2.666,-4.5Z" style="fill:#7231a3;fill-rule:nonzero;"/><path d="M677.458,252.333l-76.25,-43.916c-2.385,-1.364 -5.351,-1.251 -7.625,0.291l-16.666,9.625l7.791,10.542l2.875,3.333l0,75.375c-0.024,4.502 2.385,8.681 6.292,10.917l56.958,32.917l0.584,3.166l11.625,16.292l17.875,-10.5c1.687,-1.042 2.714,-2.892 2.708,-4.875l-0,-91.667c0.174,-4.66 -2.189,-9.066 -6.167,-11.5Z" style="fill:#ffa8e1;fill-rule:nonzero;"/><path d="M659.542,262.792l-77,-44.417c-0.83,-0.456 -1.762,-0.695 -2.709,-0.695c-3.08,0 -5.617,2.531 -5.625,5.612l0,92.125c-0.024,4.501 2.385,8.681 6.292,10.916l76.958,44.5c0.876,0.501 1.867,0.764 2.875,0.764c3.167,0 5.777,-2.597 5.792,-5.764l0,-91.666c0.043,-4.702 -2.485,-9.07 -6.583,-11.375Z" style="fill:#ff7ad2;fill-rule:nonzero;"/><path d="M666,365.792l-0,-91.667c-0.016,-1.514 -0.313,-3.011 -0.875,-4.417l17.875,-10.291c0.482,1.338 0.75,2.744 0.792,4.166l-0,91.667c0.006,1.983 -1.021,3.833 -2.709,4.875l-17.75,10.417c1.634,-1.029 2.64,-2.82 2.667,-4.75Z" style="fill:#de64c6;fill-rule:nonzero;"/><path d="M510.792,74.583l-76.209,-43.708c-2.385,-1.364 -5.351,-1.251 -7.625,0.292l-16.666,9.666l7.75,10.5l2.916,3.334l0,75.375c-0.032,4.492 2.359,8.67 6.25,10.916l56.959,32.917l0.583,3.167l11.625,16.291l17.875,-10.5c1.722,-1.013 2.773,-2.877 2.75,-4.875l0,-91.666c0.233,-4.74 -2.154,-9.243 -6.208,-11.709Z" style="fill:#fcec32;fill-rule:nonzero;"/><path d="M492.875,85.042l-77,-44.459c-0.821,-0.438 -1.737,-0.667 -2.667,-0.667c-3.078,0 -5.621,2.507 -5.666,5.584l-0,92.167c-0.01,4.486 2.397,8.646 6.291,10.875l77,44.5c0.876,0.5 1.867,0.764 2.875,0.764c3.167,-0 5.777,-2.598 5.792,-5.764l-0,-91.667c0.028,-4.698 -2.517,-9.053 -6.625,-11.333Z" style="fill:#f5d012;fill-rule:nonzero;"/><path d="M499.375,188.042l-0,-91.667c-0.037,-1.511 -0.333,-3.005 -0.875,-4.417l17.833,-10.291c0.514,1.331 0.796,2.74 0.834,4.166l-0,91.667c0.022,1.998 -1.029,3.861 -2.75,4.875l-17.709,10.417c1.623,-1.04 2.625,-2.824 2.667,-4.75Z" style="fill:#eaa10c;fill-rule:nonzero;"/><path d="M650,283.838c-4.02,-7.304 -9.844,-13.458 -16.916,-17.875c-4.946,-3.569 -11.444,-4.222 -17,-1.708c-8.334,4.75 -9.292,19.042 -2.834,33.333l-20.833,11.917l6.083,10.542l20.834,-11.917c3.606,5.15 8.247,9.493 13.625,12.75c4.922,3.547 11.384,4.199 16.916,1.708c9.417,-5.166 9.459,-22.583 0.125,-38.75Zm-6.208,28.375c-3.542,1.592 -7.677,1.179 -10.833,-1.083c-4.536,-2.807 -8.268,-6.741 -10.834,-11.417c-5.958,-10.333 -5.958,-21.5 0,-25c3.542,-1.591 7.677,-1.178 10.834,1.084c4.516,2.847 8.243,6.789 10.833,11.458c6,10.375 6,21.583 -0,24.958Z" style="fill-rule:nonzero;"/><path d="M431.625,92.958c1.285,0.739 2.463,1.65 3.5,2.709c1.167,1.166 2.333,2.375 3.5,3.708l2.167,-4.958c-2.598,-3.077 -5.68,-5.709 -9.125,-7.792c-2.309,-1.523 -5.027,-2.308 -7.792,-2.25c-2.197,0.2 -4.139,1.527 -5.125,3.5c-1.311,2.738 -1.927,5.759 -1.792,8.792c-0.123,5.451 1.108,10.849 3.584,15.708c2.361,4.514 5.979,8.248 10.416,10.75c2.604,1.646 5.532,2.711 8.584,3.125l-0,-6.375c-2.791,-0.431 -5.485,-1.348 -7.959,-2.708c-5.208,-3 -7.833,-8.334 -7.791,-16.667c-0.321,-2.761 0.408,-5.543 2.041,-7.792c1.625,-1.25 3.375,-1.208 5.792,0.25Z" style="fill:#8444b2;fill-rule:nonzero;"/><path d="M457.167,107.75l-4.667,-2.708l-0.042,9.583l-8.25,-4.792l0,5.375l8.25,4.792l-0.041,9.458l4.666,2.667l0.042,-9.417l8.25,4.75l0.042,-5.375l-8.292,-4.791l0.042,-9.542Z" style="fill:#8444b2;fill-rule:nonzero;"/><path d="M482.083,131.708l0.042,-9.541l-4.667,-2.709l-0.041,9.542l-8.25,-4.75l-0,5.375l8.25,4.792l-0.042,9.416l4.667,2.709l0.041,-9.459l8.25,4.792l0,-5.375l-8.25,-4.792Z" style="fill:#8444b2;fill-rule:nonzero;"/><path d="M853.75,255.625c-1.011,1.459 -1.456,3.237 -1.25,5l-0,11.333c-0,2.084 -0.667,3.209 -2,3.334c-2.062,-0.067 -4.06,-0.734 -5.75,-1.917l-0,7.5c2.186,1.191 4.124,2.789 5.708,4.708c1.335,1.711 2.042,3.831 2,6l0,10.875c-0.061,2.228 0.351,4.444 1.209,6.5c1.014,2.029 2.432,3.83 4.166,5.292c2.289,2.015 4.79,3.776 7.459,5.25l-0,-7.25c-1.643,-0.918 -3.065,-2.184 -4.167,-3.708c-0.709,-1.275 -1.082,-2.709 -1.083,-4.167l-0,-11c-0.283,-4.698 -2.855,-8.97 -6.875,-11.417l-0,-0.416c4.541,1.875 6.833,0.583 6.916,-3.834l0,-10.416c0,-1.667 0.375,-2.709 1.125,-3.042c0.75,-0.333 2.125,0 4.167,1.083l-0,-7.25c-2.308,-1.445 -4.804,-2.566 -7.417,-3.333c-1.454,-0.51 -3.077,-0.172 -4.208,0.875Z" style="fill-rule:nonzero;"/><path d="M896.792,302.083c-1.275,-1.612 -1.966,-3.611 -1.959,-5.666l0,-11.375c0.097,-3.285 -0.9,-6.51 -2.833,-9.167c-2.707,-3.239 -6.037,-5.903 -9.792,-7.833l0,7.25c1.646,0.894 3.07,2.147 4.167,3.666c0.72,1.27 1.093,2.707 1.083,4.167l0,10.417c0.28,4.841 2.872,9.264 6.959,11.875l-0,0.416c-1.582,-0.857 -3.442,-1.052 -5.167,-0.541c-1.208,0.583 -1.833,1.916 -1.833,4.166l-0,10.75c-0,1.667 -0.375,2.709 -1.084,3.084c-0.708,0.375 -2.166,-0 -4.166,-1.125l-0,7.25c2.866,2.128 6.307,3.348 9.875,3.5c1.875,-0.375 2.833,-2.334 2.833,-5.917l-0,-10.875c-0,-2.25 0.667,-3.5 1.958,-3.708c2.065,0.049 4.069,0.717 5.75,1.916l0,-7.666c-2.195,-1.159 -4.159,-2.713 -5.791,-4.584Z" style="fill-rule:nonzero;"/><path d="M751.25,459.708l23.833,25.917l0.042,-6.625l-16.458,-17.292l16.5,0.75l-0,-6.625l-23.917,-0.083l0,3.958Z" style="fill:#1f5e77;fill-rule:nonzero;"/><path d="M777.542,492.667l6.666,3.833l13.25,-32.875l-6.708,-3.833l-13.208,32.875Z" style="fill:#1f5e77;fill-rule:nonzero;"/><path d="M799.75,470.042l0,6.625l16.458,18.25l-16.5,-1.709l-0.041,6.625l23.958,1.667l0,-3.958l-23.875,-27.5Z" style="fill:#1f5e77;fill-rule:nonzero;"/><path d="M307.625,338.667l0,4.458l18.75,10.792l0,-4.459l-18.75,-10.791Z" style="fill:#f5d012;fill-rule:nonzero;"/><path d="M307.625,346.792l0,4.458l18.75,10.833l0,-4.458l-18.75,-10.833Z" style="fill:#edf0f8;fill-rule:nonzero;"/><path d="M307.625,354.958l0,4.459l18.75,10.791l0,-4.458l-18.75,-10.792Z" style="fill:#edf0f8;fill-rule:nonzero;"/><path d="M449.042,449.125l-0,-4.458l-115.667,-66.709l0,4.459l115.667,66.708Z" style="fill:#edf0f8;fill-rule:nonzero;"/><path d="M307.625,363.083l0,4.459l18.75,10.833l0,-4.458l-18.75,-10.834Z" style="fill:#edf0f8;fill-rule:nonzero;"/><path d="M307.625,371.25l0,4.458l18.75,10.792l0,-4.458l-18.75,-10.792Z" style="fill:#edf0f8;fill-rule:nonzero;"/><path d="M449.042,457.25l-0,-4.458l-115.667,-66.667l0,4.417l115.667,66.708Z" style="fill:#50e85e;fill-rule:nonzero;"/><path d="M307.625,395.667l0,4.458l18.75,10.833l0,-4.458l-18.75,-10.833Z" style="fill:#edf0f8;fill-rule:nonzero;"/><path d="M307.625,403.833l0,4.459l18.75,10.791l0,-4.458l-18.75,-10.792Z" style="fill:#f5d012;fill-rule:nonzero;"/><path d="M307.625,436.417l0,4.458l18.75,10.833l0,-4.5l-18.75,-10.791Z" style="fill:#edf0f8;fill-rule:nonzero;"/><path d="M307.625,444.583l0,4.459l18.75,10.791l0,-4.458l-18.75,-10.792Z" style="fill:#edf0f8;fill-rule:nonzero;"/><path d="M406.333,501.5l-72.958,-42.083l0,4.458l72.958,42.083l0,-4.458Z" style="fill:#50e85e;fill-rule:nonzero;"/><path d="M410.167,503.708l-0,4.5l38.875,22.375l-0,-4.458l-38.875,-22.417Z" style="fill:#edf0f8;fill-rule:nonzero;"/><path d="M370.042,472.417l-36.667,-21.125l0,4.458l36.667,21.125l-0,-4.458Z" style="fill:#edf0f8;fill-rule:nonzero;"/><path d="M373.875,474.667l0,4.416l75.167,43.375l-0,-4.458l-75.167,-43.333Z" style="fill:#edf0f8;fill-rule:nonzero;"/><path d="M439.125,487.833l0,4.459l9.917,5.708l-0,-4.458l-9.917,-5.709Z" style="fill:#edf0f8;fill-rule:nonzero;"/><path d="M385.333,448.667l-51.958,-29.959l0,4.459l51.958,29.958l0,-4.458Z" style="fill:#ed5561;fill-rule:nonzero;"/><path d="M364.042,371.208l-30.667,-17.708l0,4.458l30.667,17.709l-0,-4.459Z" style="fill:#edf0f8;fill-rule:nonzero;"/><path d="M414.333,400.208l-46.416,-26.791l-0,4.458l46.416,26.792l0,-4.459Z" style="fill:#edf0f8;fill-rule:nonzero;"/><path d="M387.25,392.75l-32.667,-18.875l0,4.458l32.667,18.875l0,-4.458Z" style="fill:#edf0f8;fill-rule:nonzero;"/><path d="M421.583,412.5l-30.458,-17.542l0,4.459l30.458,17.583l0,-4.5Z" style="fill:#ed5561;fill-rule:nonzero;"/><path d="M425.417,414.75l-0,4.458l23.625,13.625l-0,-4.458l-23.625,-13.625Z" style="fill:#edf0f8;fill-rule:nonzero;"/><path d="M339.417,373.292l-0,4.458l24.625,14.208l-0,-4.458l-24.625,-14.208Z" style="fill:#ed5561;fill-rule:nonzero;"/><path d="M439.375,430.958l-71.458,-41.25l-0,4.459l71.458,41.25l0,-4.459Z" style="fill:#edf0f8;fill-rule:nonzero;"/><path d="M398.458,431.792l-46.708,-26.959l0,4.459l46.708,26.958l0,-4.458Z" style="fill:#edf0f8;fill-rule:nonzero;"/><path d="M439.375,455.375l-37.083,-21.375l-0,4.458l37.083,21.375l0,-4.458Z" style="fill:#edf0f8;fill-rule:nonzero;"/><path d="M435.292,477.458l-46.084,-26.583l0,4.458l46.084,26.584l-0,-4.459Z" style="fill:#edf0f8;fill-rule:nonzero;"/><path d="M410.167,471.125l-0,4.458l25.125,14.5l-0,-4.458l-25.125,-14.5Z" style="fill:#50e85e;fill-rule:nonzero;"/><path d="M342.417,432.042l-9.042,-5.209l0,4.459l9.042,5.208l-0,-4.458Z" style="fill:#edf0f8;fill-rule:nonzero;"/><path d="M359.375,441.833l0,4.459l46.958,27.083l0,-4.458l-46.958,-27.084Z" style="fill:#edf0f8;fill-rule:nonzero;"/><path d="M355.542,439.625l-9.25,-5.333l-0,4.458l9.25,5.333l-0,-4.458Z" style="fill:#edf0f8;fill-rule:nonzero;"/><path d="M397.667,472.042l-51.375,-29.625l-0,4.458l51.375,29.625l-0,-4.458Z" style="fill:#edf0f8;fill-rule:nonzero;"/><path d="M457.167,424.958l-0,1.209l5.166,3l0,-1.25l-5.166,-2.959Z" style="fill:#edf0f8;fill-rule:nonzero;"/><path d="M457.167,427.208l-0,1.209l5.166,3l0,-1.25l-5.166,-2.959Z" style="fill:#edf0f8;fill-rule:nonzero;"/><path d="M457.167,429.458l-0,1.209l5.166,3l0,-1.25l-5.166,-2.959Z" style="fill:#edf0f8;fill-rule:nonzero;"/><path d="M496.125,455.375l0,-1.208l-31.875,-18.375l0,1.208l31.875,18.375Z" style="fill:#edf0f8;fill-rule:nonzero;"/><path d="M457.167,431.708l-0,1.209l5.166,2.958l0,-1.208l-5.166,-2.959Z" style="fill:#edf0f8;fill-rule:nonzero;"/><path d="M457.167,433.917l-0,1.25l5.166,2.958l0,-1.208l-5.166,-3Z" style="fill:#edf0f8;fill-rule:nonzero;"/><path d="M496.125,457.625l0,-1.208l-31.875,-18.375l0,1.208l31.875,18.375Z" style="fill:#edf0f8;fill-rule:nonzero;"/><path d="M457.167,440.667l-0,1.25l5.166,2.958l0,-1.208l-5.166,-3Z" style="fill:#edf0f8;fill-rule:nonzero;"/><path d="M457.167,442.917l-0,1.208l5.166,3l0,-1.25l-5.166,-2.958Z" style="fill:#edf0f8;fill-rule:nonzero;"/><path d="M457.167,451.875l-0,1.25l5.166,3l0,-1.25l-5.166,-3Z" style="fill:#edf0f8;fill-rule:nonzero;"/><path d="M457.167,454.125l-0,1.25l5.166,2.958l0,-1.208l-5.166,-3Z" style="fill:#edf0f8;fill-rule:nonzero;"/><path d="M484.375,469.833l-20.125,-11.583l0,1.208l20.125,11.584l0,-1.209Z" style="fill:#edf0f8;fill-rule:nonzero;"/><path d="M485.417,470.458l-0,1.209l10.708,6.166l-0,-1.208l-10.708,-6.167Z" style="fill:#edf0f8;fill-rule:nonzero;"/><path d="M474.375,461.833l-10.125,-5.833l0,1.208l10.125,5.834l0,-1.209Z" style="fill:#edf0f8;fill-rule:nonzero;"/><path d="M475.417,462.417l-0,1.25l20.708,11.916l-0,-1.208l-20.708,-11.958Z" style="fill:#edf0f8;fill-rule:nonzero;"/><path d="M493.417,466.083l-0,1.209l2.708,1.583l-0,-1.25l-2.708,-1.542Z" style="fill:#edf0f8;fill-rule:nonzero;"/><path d="M478.583,455.25l-14.333,-8.25l0,1.25l14.333,8.25l0,-1.25Z" style="fill:#edf0f8;fill-rule:nonzero;"/><path d="M472.708,433.917l-8.458,-4.875l0,1.25l8.458,4.875l0,-1.25Z" style="fill:#edf0f8;fill-rule:nonzero;"/><path d="M486.583,441.917l-12.833,-7.375l0,1.208l12.833,7.375l0,-1.208Z" style="fill:#edf0f8;fill-rule:nonzero;"/><path d="M479.083,439.875l-9,-5.208l0,1.208l9,5.208l0,-1.208Z" style="fill:#edf0f8;fill-rule:nonzero;"/><path d="M488.542,445.292l-8.375,-4.834l-0,1.25l8.375,4.834l-0,-1.25Z" style="fill:#edf0f8;fill-rule:nonzero;"/><path d="M489.625,445.917l0,1.25l6.5,3.75l0,-1.25l-6.5,-3.75Z" style="fill:#edf0f8;fill-rule:nonzero;"/><path d="M465.917,434.5l-0,1.25l6.791,3.875l0,-1.208l-6.791,-3.917Z" style="fill:#edf0f8;fill-rule:nonzero;"/><path d="M493.458,450.375l-19.708,-11.333l0,1.208l19.708,11.375l0,-1.25Z" style="fill:#edf0f8;fill-rule:nonzero;"/><path d="M482.167,450.625l-12.834,-7.417l0,1.209l12.834,7.416l-0,-1.208Z" style="fill:#edf0f8;fill-rule:nonzero;"/><path d="M493.458,457.125l-10.208,-5.875l0,1.208l10.208,5.875l0,-1.208Z" style="fill:#edf0f8;fill-rule:nonzero;"/><path d="M492.333,463.208l-12.708,-7.333l0,1.25l12.708,7.333l0,-1.25Z" style="fill:#edf0f8;fill-rule:nonzero;"/><path d="M485.417,461.458l-0,1.25l6.916,3.959l0,-1.209l-6.916,-4Z" style="fill:#edf0f8;fill-rule:nonzero;"/><path d="M466.75,450.708l-2.5,-1.458l0,1.25l2.5,1.417l0,-1.209Z" style="fill:#edf0f8;fill-rule:nonzero;"/><path d="M471.417,453.375l-0,1.25l12.958,7.458l0,-1.25l-12.958,-7.458Z" style="fill:#edf0f8;fill-rule:nonzero;"/><path d="M470.375,452.792l-2.583,-1.5l-0,1.25l2.583,1.458l0,-1.208Z" style="fill:#edf0f8;fill-rule:nonzero;"/><path d="M481.958,461.708l-14.166,-8.166l-0,1.25l14.166,8.166l0,-1.25Z" style="fill:#edf0f8;fill-rule:nonzero;"/><path d="M457.167,462.958l-0,1.209l5.166,3l0,-1.25l-5.166,-2.959Z" style="fill:#edf0f8;fill-rule:nonzero;"/><path d="M457.167,465.167l-0,1.25l5.166,3l0,-1.25l-5.166,-3Z" style="fill:#edf0f8;fill-rule:nonzero;"/><path d="M457.167,467.417l-0,1.25l5.166,2.958l0,-1.208l-5.166,-3Z" style="fill:#edf0f8;fill-rule:nonzero;"/><path d="M496.125,493.375l0,-1.208l-31.875,-18.375l0,1.208l31.875,18.375Z" style="fill:#edf0f8;fill-rule:nonzero;"/><path d="M457.167,469.667l-0,1.25l5.166,2.958l0,-1.208l-5.166,-3Z" style="fill:#edf0f8;fill-rule:nonzero;"/><path d="M457.167,471.917l-0,1.25l5.166,2.958l0,-1.208l-5.166,-3Z" style="fill:#edf0f8;fill-rule:nonzero;"/><path d="M496.125,495.625l0,-1.208l-31.875,-18.417l0,1.25l31.875,18.375Z" style="fill:#edf0f8;fill-rule:nonzero;"/><path d="M457.167,478.667l-0,1.208l5.166,3l0,-1.25l-5.166,-2.958Z" style="fill:#edf0f8;fill-rule:nonzero;"/><path d="M457.167,480.917l-0,1.208l5.166,3l0,-1.25l-5.166,-2.958Z" style="fill:#edf0f8;fill-rule:nonzero;"/><path d="M457.167,489.875l-0,1.25l5.166,2.958l0,-1.208l-5.166,-3Z" style="fill:#edf0f8;fill-rule:nonzero;"/><path d="M457.167,492.125l-0,1.25l5.166,2.958l0,-1.208l-5.166,-3Z" style="fill:#edf0f8;fill-rule:nonzero;"/><path d="M484.375,507.833l-20.125,-11.625l0,1.25l20.125,11.584l0,-1.209Z" style="fill:#edf0f8;fill-rule:nonzero;"/><path d="M485.417,508.417l-0,1.25l10.708,6.166l-0,-1.25l-10.708,-6.166Z" style="fill:#edf0f8;fill-rule:nonzero;"/><path d="M474.375,499.792l-10.125,-5.792l0,1.208l10.125,5.834l0,-1.25Z" style="fill:#edf0f8;fill-rule:nonzero;"/><path d="M475.417,500.417l-0,1.208l20.708,11.958l-0,-1.208l-20.708,-11.958Z" style="fill:#edf0f8;fill-rule:nonzero;"/><path d="M493.417,504.042l-0,1.25l2.708,1.541l-0,-1.208l-2.708,-1.583Z" style="fill:#edf0f8;fill-rule:nonzero;"/><path d="M478.583,493.25l-14.333,-8.25l0,1.208l14.333,8.292l0,-1.25Z" style="fill:#edf0f8;fill-rule:nonzero;"/><path d="M472.708,471.917l-8.458,-4.875l0,1.208l8.458,4.875l0,-1.208Z" style="fill:#edf0f8;fill-rule:nonzero;"/><path d="M486.583,479.917l-12.833,-7.375l0,1.208l12.833,7.375l0,-1.208Z" style="fill:#edf0f8;fill-rule:nonzero;"/><path d="M479.083,477.833l-9,-5.166l0,1.208l9,5.208l0,-1.25Z" style="fill:#edf0f8;fill-rule:nonzero;"/><path d="M488.542,483.292l-8.375,-4.834l-0,1.25l8.375,4.834l-0,-1.25Z" style="fill:#edf0f8;fill-rule:nonzero;"/><path d="M489.625,483.917l0,1.208l6.5,3.75l0,-1.208l-6.5,-3.75Z" style="fill:#edf0f8;fill-rule:nonzero;"/><path d="M465.917,472.5l-0,1.208l6.791,3.917l0,-1.208l-6.791,-3.917Z" style="fill:#edf0f8;fill-rule:nonzero;"/><path d="M493.458,488.375l-19.708,-11.375l0,1.25l19.708,11.333l0,-1.208Z" style="fill:#edf0f8;fill-rule:nonzero;"/><path d="M482.167,488.625l-12.834,-7.458l0,1.25l12.834,7.416l-0,-1.208Z" style="fill:#edf0f8;fill-rule:nonzero;"/><path d="M493.458,495.125l-10.208,-5.917l0,1.25l10.208,5.875l0,-1.208Z" style="fill:#edf0f8;fill-rule:nonzero;"/><path d="M492.333,501.208l-12.708,-7.333l0,1.208l12.708,7.334l0,-1.209Z" style="fill:#edf0f8;fill-rule:nonzero;"/><path d="M485.417,499.458l-0,1.209l6.916,4l0,-1.209l-6.916,-4Z" style="fill:#edf0f8;fill-rule:nonzero;"/><path d="M466.75,488.667l-2.5,-1.417l0,1.208l2.5,1.459l0,-1.25Z" style="fill:#edf0f8;fill-rule:nonzero;"/><path d="M471.417,491.375l-0,1.208l12.958,7.5l0,-1.25l-12.958,-7.458Z" style="fill:#edf0f8;fill-rule:nonzero;"/><path d="M470.375,490.75l-2.583,-1.458l-0,1.208l2.583,1.5l0,-1.25Z" style="fill:#edf0f8;fill-rule:nonzero;"/><path d="M481.958,499.708l-14.166,-8.166l-0,1.208l14.166,8.167l0,-1.209Z" style="fill:#edf0f8;fill-rule:nonzero;"/><path d="M457.167,500.917l-0,1.25l5.166,2.958l0,-1.208l-5.166,-3Z" style="fill:#edf0f8;fill-rule:nonzero;"/><path d="M457.167,503.167l-0,1.25l5.166,2.958l0,-1.208l-5.166,-3Z" style="fill:#edf0f8;fill-rule:nonzero;"/><path d="M457.167,505.417l-0,1.25l5.166,2.958l0,-1.208l-5.166,-3Z" style="fill:#edf0f8;fill-rule:nonzero;"/><path d="M496.125,531.375l0,-1.25l-31.875,-18.375l0,1.25l31.875,18.375Z" style="fill:#edf0f8;fill-rule:nonzero;"/><path d="M457.167,507.667l-0,1.25l5.166,2.958l0,-1.208l-5.166,-3Z" style="fill:#edf0f8;fill-rule:nonzero;"/><path d="M457.167,509.917l-0,1.208l5.166,3l0,-1.25l-5.166,-2.958Z" style="fill:#edf0f8;fill-rule:nonzero;"/><path d="M496.125,533.625l0,-1.25l-31.875,-18.375l0,1.25l31.875,18.375Z" style="fill:#edf0f8;fill-rule:nonzero;"/><path d="M457.167,516.667l-0,1.208l5.166,2.958l0,-1.208l-5.166,-2.958Z" style="fill:#edf0f8;fill-rule:nonzero;"/><path d="M457.167,518.875l-0,1.25l5.166,2.958l0,-1.208l-5.166,-3Z" style="fill:#edf0f8;fill-rule:nonzero;"/><path d="M457.167,527.875l-0,1.208l5.166,3l0,-1.25l-5.166,-2.958Z" style="fill:#edf0f8;fill-rule:nonzero;"/><path d="M457.167,530.125l-0,1.208l5.166,3l0,-1.25l-5.166,-2.958Z" style="fill:#edf0f8;fill-rule:nonzero;"/><path d="M484.375,545.792l-20.125,-11.584l0,1.25l20.125,11.584l0,-1.25Z" style="fill:#edf0f8;fill-rule:nonzero;"/><path d="M485.417,546.417l-0,1.25l10.708,6.166l-0,-1.25l-10.708,-6.166Z" style="fill:#edf0f8;fill-rule:nonzero;"/><path d="M474.375,537.792l-10.125,-5.834l0,1.25l10.125,5.834l0,-1.25Z" style="fill:#edf0f8;fill-rule:nonzero;"/><path d="M475.417,538.417l-0,1.208l20.708,11.958l-0,-1.25l-20.708,-11.916Z" style="fill:#edf0f8;fill-rule:nonzero;"/><path d="M493.417,542.042l-0,1.208l2.708,1.583l-0,-1.208l-2.708,-1.583Z" style="fill:#edf0f8;fill-rule:nonzero;"/><path d="M478.583,531.25l-14.333,-8.25l0,1.208l14.333,8.25l0,-1.208Z" style="fill:#edf0f8;fill-rule:nonzero;"/><path d="M472.708,509.917l-8.458,-4.875l0,1.208l8.458,4.875l0,-1.208Z" style="fill:#edf0f8;fill-rule:nonzero;"/><path d="M486.583,517.875l-12.833,-7.375l0,1.25l12.833,7.375l0,-1.25Z" style="fill:#edf0f8;fill-rule:nonzero;"/><path d="M479.083,515.833l-9,-5.208l0,1.25l9,5.167l0,-1.209Z" style="fill:#edf0f8;fill-rule:nonzero;"/><path d="M488.542,521.292l-8.375,-4.834l-0,1.209l8.375,4.833l-0,-1.208Z" style="fill:#edf0f8;fill-rule:nonzero;"/><path d="M489.625,521.875l0,1.25l6.5,3.75l0,-1.208l-6.5,-3.792Z" style="fill:#edf0f8;fill-rule:nonzero;"/><path d="M465.917,510.458l-0,1.25l6.791,3.917l0,-1.25l-6.791,-3.917Z" style="fill:#edf0f8;fill-rule:nonzero;"/><path d="M493.458,526.375l-19.708,-11.375l0,1.208l19.708,11.375l0,-1.208Z" style="fill:#edf0f8;fill-rule:nonzero;"/><path d="M482.167,526.583l-12.834,-7.416l0,1.208l12.834,7.458l-0,-1.25Z" style="fill:#edf0f8;fill-rule:nonzero;"/><path d="M493.458,533.083l-10.208,-5.875l0,1.209l10.208,5.916l0,-1.25Z" style="fill:#edf0f8;fill-rule:nonzero;"/><path d="M492.333,539.167l-12.708,-7.334l0,1.25l12.708,7.334l0,-1.25Z" style="fill:#edf0f8;fill-rule:nonzero;"/><path d="M485.417,537.458l-0,1.209l6.916,4l0,-1.25l-6.916,-3.959Z" style="fill:#edf0f8;fill-rule:nonzero;"/><path d="M466.75,526.667l-2.5,-1.417l0,1.208l2.5,1.417l0,-1.208Z" style="fill:#edf0f8;fill-rule:nonzero;"/><path d="M471.417,529.375l-0,1.208l12.958,7.459l0,-1.209l-12.958,-7.458Z" style="fill:#edf0f8;fill-rule:nonzero;"/><path d="M470.375,528.75l-2.583,-1.458l-0,1.208l2.583,1.458l0,-1.208Z" style="fill:#edf0f8;fill-rule:nonzero;"/><path d="M481.958,537.708l-14.166,-8.166l-0,1.208l14.166,8.167l0,-1.209Z" style="fill:#edf0f8;fill-rule:nonzero;"/><path d="M457.167,538.917l-0,1.25l5.166,2.958l0,-1.208l-5.166,-3Z" style="fill:#edf0f8;fill-rule:nonzero;"/><path d="M457.167,541.167l-0,1.208l5.166,3l0,-1.25l-5.166,-2.958Z" style="fill:#edf0f8;fill-rule:nonzero;"/><path d="M457.167,543.417l-0,1.208l5.166,3l0,-1.25l-5.166,-2.958Z" style="fill:#edf0f8;fill-rule:nonzero;"/><path d="M496.125,569.375l0,-1.25l-31.875,-18.375l0,1.25l31.875,18.375Z" style="fill:#edf0f8;fill-rule:nonzero;"/><path d="M457.167,545.667l-0,1.208l5.166,3l0,-1.25l-5.166,-2.958Z" style="fill:#edf0f8;fill-rule:nonzero;"/><path d="M457.167,547.917l-0,1.208l5.166,2.958l0,-1.208l-5.166,-2.958Z" style="fill:#edf0f8;fill-rule:nonzero;"/><path d="M496.125,571.583l0,-1.208l-31.875,-18.375l0,1.208l31.875,18.375Z" style="fill:#edf0f8;fill-rule:nonzero;"/><path d="M457.167,554.625l-0,1.25l5.166,2.958l0,-1.208l-5.166,-3Z" style="fill:#edf0f8;fill-rule:nonzero;"/><path d="M457.167,556.875l-0,1.25l5.166,2.958l0,-1.208l-5.166,-3Z" style="fill:#edf0f8;fill-rule:nonzero;"/><path d="M493.417,580.042l-0,1.208l2.708,1.583l-0,-1.25l-2.708,-1.541Z" style="fill:#edf0f8;fill-rule:nonzero;"/><path d="M478.583,569.25l-14.333,-8.292l0,1.25l14.333,8.25l0,-1.208Z" style="fill:#edf0f8;fill-rule:nonzero;"/><path d="M472.708,547.875l-8.458,-4.875l0,1.25l8.458,4.875l0,-1.25Z" style="fill:#edf0f8;fill-rule:nonzero;"/><path d="M486.583,555.875l-12.833,-7.375l0,1.25l12.833,7.375l0,-1.25Z" style="fill:#edf0f8;fill-rule:nonzero;"/><path d="M479.083,553.833l-9,-5.208l0,1.25l9,5.167l0,-1.209Z" style="fill:#edf0f8;fill-rule:nonzero;"/><path d="M488.542,559.292l-8.375,-4.875l-0,1.25l8.375,4.833l-0,-1.208Z" style="fill:#edf0f8;fill-rule:nonzero;"/><path d="M489.625,559.875l0,1.25l6.5,3.75l0,-1.25l-6.5,-3.75Z" style="fill:#edf0f8;fill-rule:nonzero;"/><path d="M465.917,548.458l-0,1.25l6.791,3.917l0,-1.25l-6.791,-3.917Z" style="fill:#edf0f8;fill-rule:nonzero;"/><path d="M493.458,564.333l-19.708,-11.333l0,1.208l19.708,11.375l0,-1.25Z" style="fill:#edf0f8;fill-rule:nonzero;"/><path d="M482.167,564.583l-12.834,-7.416l0,1.208l12.834,7.417l-0,-1.209Z" style="fill:#edf0f8;fill-rule:nonzero;"/><path d="M493.458,571.083l-10.208,-5.875l0,1.209l10.208,5.916l0,-1.25Z" style="fill:#edf0f8;fill-rule:nonzero;"/><path d="M492.333,577.167l-12.708,-7.334l0,1.25l12.708,7.334l0,-1.25Z" style="fill:#edf0f8;fill-rule:nonzero;"/><path d="M485.417,575.417l-0,1.25l6.916,3.958l0,-1.208l-6.916,-4Z" style="fill:#edf0f8;fill-rule:nonzero;"/><path d="M466.75,564.667l-2.5,-1.459l0,1.25l2.5,1.417l0,-1.208Z" style="fill:#edf0f8;fill-rule:nonzero;"/><path d="M471.417,567.333l-0,1.25l12.958,7.459l0,-1.209l-12.958,-7.5Z" style="fill:#edf0f8;fill-rule:nonzero;"/><path d="M470.375,566.75l-2.583,-1.5l-0,1.25l2.583,1.458l0,-1.208Z" style="fill:#edf0f8;fill-rule:nonzero;"/><path d="M481.958,575.667l-14.166,-8.167l-0,1.25l14.166,8.167l0,-1.25Z" style="fill:#edf0f8;fill-rule:nonzero;"/><path d="M295.625,331.75l-6.167,-3.583c-0.074,-0.049 -0.162,-0.075 -0.251,-0.075c-0.251,-0 -0.458,0.207 -0.458,0.458c-0,0.011 0,0.022 0.001,0.033l-0,7.375c-0.005,0.372 0.207,0.714 0.542,0.875l6.166,3.584c0.065,0.033 0.136,0.05 0.209,0.05c0.251,-0 0.458,-0.207 0.458,-0.459c0,-0.002 0,-0.005 -0,-0.008l0,-7.375c0.023,-0.365 -0.174,-0.71 -0.5,-0.875Z" style="fill:#50e85e;fill-rule:nonzero;"/><path d="M295.625,342.792l-6.167,-3.542c-0.074,-0.048 -0.161,-0.074 -0.25,-0.074c-0.248,-0 -0.453,0.201 -0.458,0.449l-0,7.375c-0.005,0.371 0.207,0.714 0.542,0.875l6.166,3.583c0.065,0.033 0.136,0.05 0.209,0.05c0.251,0 0.458,-0.206 0.458,-0.458c0,-0.003 0,-0.006 -0,-0.008l0,-7.334c0.01,-0.372 -0.182,-0.723 -0.5,-0.916Z" style="fill:#50e85e;fill-rule:nonzero;"/><path d="M295.625,353.833l-6.167,-3.541c-0.074,-0.049 -0.161,-0.075 -0.25,-0.075c-0.248,0 -0.453,0.202 -0.458,0.45l-0,7.416c0.022,0.364 0.226,0.694 0.542,0.875l6.166,3.542c0.073,0.055 0.161,0.085 0.253,0.085c0.228,0 0.416,-0.188 0.416,-0.417c0,-0.014 -0,-0.029 -0.002,-0.043l0,-7.375c0.01,-0.373 -0.182,-0.723 -0.5,-0.917Z" style="fill:#50e85e;fill-rule:nonzero;"/><path d="M295.625,364.917l-6.167,-3.584c-0.074,-0.049 -0.162,-0.075 -0.251,-0.075c-0.251,0 -0.458,0.207 -0.458,0.459c-0,0.011 0,0.022 0.001,0.033l-0,7.375c-0.005,0.371 0.207,0.714 0.542,0.875l6.166,3.583c0.065,0.033 0.136,0.05 0.209,0.05c0.251,0 0.458,-0.206 0.458,-0.458c0,-0.003 0,-0.006 -0,-0.008l0,-7.375c0.023,-0.365 -0.174,-0.71 -0.5,-0.875Z" style="fill:#50e85e;fill-rule:nonzero;"/><path d="M295.625,375.958l-6.167,-3.541c-0.074,-0.049 -0.161,-0.075 -0.25,-0.075c-0.248,0 -0.453,0.202 -0.458,0.45l-0,7.375c-0.005,0.371 0.207,0.713 0.542,0.875l6.166,3.583c0.065,0.033 0.136,0.05 0.209,0.05c0.251,0 0.458,-0.207 0.458,-0.458c0,-0.003 0,-0.006 -0,-0.009l0,-7.5c-0.038,-0.315 -0.224,-0.593 -0.5,-0.75Z" style="fill:#50e85e;fill-rule:nonzero;"/><path d="M295.625,387l-6.167,-3.542c-0.074,-0.048 -0.161,-0.074 -0.25,-0.074c-0.248,0 -0.453,0.201 -0.458,0.449l-0,7.417c0.022,0.364 0.226,0.693 0.542,0.875l6.166,3.542c0.065,0.033 0.137,0.05 0.21,0.05c0.239,0 0.44,-0.187 0.457,-0.425l0,-7.375c0.01,-0.373 -0.182,-0.723 -0.5,-0.917Z" style="fill:#50e85e;fill-rule:nonzero;"/><path d="M295.625,398.083l-6.167,-3.583c-0.074,-0.049 -0.162,-0.075 -0.251,-0.075c-0.251,0 -0.458,0.207 -0.458,0.458c-0,0.011 0,0.023 0.001,0.034l-0,7.375c-0.005,0.371 0.207,0.713 0.542,0.875l6.166,3.583c0.065,0.033 0.136,0.05 0.209,0.05c0.251,0 0.458,-0.207 0.458,-0.458c0,-0.003 0,-0.006 -0,-0.009l0,-7.375c0.023,-0.364 -0.174,-0.709 -0.5,-0.875Z" style="fill:#50e85e;fill-rule:nonzero;"/><path d="M295.625,409.125l-6.167,-3.583c-0.065,-0.031 -0.137,-0.046 -0.209,-0.046c-0.261,-0 -0.48,0.203 -0.499,0.462l-0,7.375c-0.005,0.372 0.207,0.714 0.542,0.875l6.166,3.584c0.065,0.033 0.136,0.05 0.209,0.05c0.251,-0 0.458,-0.207 0.458,-0.459c0,-0.002 0,-0.005 -0,-0.008l0,-7.333c0.019,-0.375 -0.175,-0.73 -0.5,-0.917Z" style="fill:#50e85e;fill-rule:nonzero;"/><path d="M295.625,420.167l-6.167,-3.542c-0.074,-0.048 -0.161,-0.074 -0.25,-0.074c-0.248,-0 -0.453,0.201 -0.458,0.449l-0,7.417c0.011,0.356 0.22,0.678 0.542,0.833l6.166,3.583c0.065,0.034 0.137,0.051 0.21,0.051c0.239,0 0.44,-0.187 0.457,-0.426l0,-7.375c0.01,-0.372 -0.182,-0.723 -0.5,-0.916Z" style="fill:#50e85e;fill-rule:nonzero;"/><path d="M295.625,431.25l-6.167,-3.583c-0.074,-0.049 -0.162,-0.075 -0.251,-0.075c-0.251,-0 -0.458,0.207 -0.458,0.458c-0,0.011 0,0.022 0.001,0.033l-0,7.375c0.005,0.369 0.214,0.706 0.542,0.875l6.166,3.542c0.073,0.055 0.161,0.085 0.253,0.085c0.228,0 0.416,-0.188 0.416,-0.417c0,-0.014 -0,-0.029 -0.002,-0.043l0,-7.375c0.023,-0.365 -0.174,-0.71 -0.5,-0.875Z" style="fill:#50e85e;fill-rule:nonzero;"/><path d="M295.625,442.292l-6.167,-3.584c-0.074,-0.049 -0.162,-0.075 -0.251,-0.075c-0.251,0 -0.458,0.207 -0.458,0.459c-0,0.011 0,0.022 0.001,0.033l-0,7.375c-0.005,0.371 0.207,0.714 0.542,0.875l6.166,3.583c0.065,0.033 0.136,0.05 0.209,0.05c0.251,0 0.458,-0.206 0.458,-0.458c0,-0.003 0,-0.006 -0,-0.008l0,-7.167c0.09,-0.431 -0.114,-0.873 -0.5,-1.083Z" style="fill:#50e85e;fill-rule:nonzero;"/><path d="M295.625,453.333l-6.167,-3.541c-0.074,-0.049 -0.161,-0.075 -0.25,-0.075c-0.248,0 -0.453,0.202 -0.458,0.45l-0,7.416c0.011,0.357 0.22,0.679 0.542,0.834l6.166,3.583c0.065,0.033 0.136,0.05 0.209,0.05c0.251,0 0.458,-0.207 0.458,-0.458c0,-0.003 0,-0.006 -0,-0.009l0,-7.333c0.01,-0.373 -0.182,-0.723 -0.5,-0.917Z" style="fill:#50e85e;fill-rule:nonzero;"/><g opacity="0.4"><path d="M585.583,370.917l0,4.458l18.75,10.792l0,-4.459l-18.75,-10.791Z" style="fill-rule:nonzero;"/><path d="M585.583,379.042l0,4.458l18.75,10.833l0,-4.5l-18.75,-10.791Z" style="fill-rule:nonzero;"/><path d="M585.583,387.208l0,4.459l18.75,10.791l0,-4.458l-18.75,-10.792Z" style="fill-rule:nonzero;"/><path d="M727,481.375l0,-4.458l-115.625,-66.709l0,4.459l115.625,66.708Z" style="fill-rule:nonzero;"/><path d="M585.583,395.333l0,4.459l18.75,10.833l0,-4.458l-18.75,-10.834Z" style="fill-rule:nonzero;"/><path d="M585.583,403.5l0,4.458l18.75,10.792l0,-4.458l-18.75,-10.792Z" style="fill-rule:nonzero;"/><path d="M727,489.5l0,-4.458l-115.625,-66.667l0,4.417l115.625,66.708Z" style="fill-rule:nonzero;"/><path d="M585.583,427.917l0,4.5l18.75,10.791l0,-4.458l-18.75,-10.833Z" style="fill-rule:nonzero;"/><path d="M585.583,436.083l0,4.459l18.75,10.791l0,-4.458l-18.75,-10.792Z" style="fill-rule:nonzero;"/><path d="M585.583,468.667l0,4.458l18.75,10.833l0,-4.458l-18.75,-10.833Z" style="fill-rule:nonzero;"/><path d="M585.583,476.833l0,4.459l18.75,10.791l0,-4.458l-18.75,-10.792Z" style="fill-rule:nonzero;"/><path d="M684.333,533.75l-72.958,-42.083l0,4.5l72.958,42.041l0,-4.458Z" style="fill-rule:nonzero;"/><path d="M688.167,535.958l-0,4.5l38.833,22.375l0,-4.458l-38.833,-22.417Z" style="fill-rule:nonzero;"/><path d="M648.042,504.667l-36.667,-21.125l0,4.458l36.667,21.125l-0,-4.458Z" style="fill-rule:nonzero;"/><path d="M651.875,506.917l0,4.416l75.125,43.375l0,-4.458l-75.125,-43.333Z" style="fill-rule:nonzero;"/><path d="M717.125,520.083l0,4.459l9.875,5.708l0,-4.458l-9.875,-5.709Z" style="fill-rule:nonzero;"/><path d="M663.333,480.917l-51.958,-29.959l0,4.459l51.958,29.958l0,-4.458Z" style="fill-rule:nonzero;"/><path d="M642.042,403.458l-30.667,-17.708l0,4.458l30.667,17.709l-0,-4.459Z" style="fill-rule:nonzero;"/><path d="M692.333,432.458l-46.458,-26.791l0,4.458l46.458,26.792l0,-4.459Z" style="fill-rule:nonzero;"/><path d="M665.25,425l-32.667,-18.875l0,4.458l32.667,18.875l0,-4.458Z" style="fill-rule:nonzero;"/><path d="M699.542,444.792l-30.459,-17.584l0,4.459l30.459,17.541l-0,-4.416Z" style="fill-rule:nonzero;"/><path d="M703.375,447l0,4.458l23.625,13.625l0,-4.458l-23.625,-13.625Z" style="fill-rule:nonzero;"/><path d="M617.417,405.542l-0,4.458l24.625,14.208l-0,-4.458l-24.625,-14.208Z" style="fill-rule:nonzero;"/><path d="M717.375,463.208l-71.5,-41.25l0,4.459l71.5,41.25l0,-4.459Z" style="fill-rule:nonzero;"/><path d="M676.458,464.042l-46.75,-26.959l0,4.459l46.75,26.958l0,-4.458Z" style="fill-rule:nonzero;"/><path d="M717.375,487.625l-37.083,-21.375l-0,4.458l37.083,21.417l0,-4.5Z" style="fill-rule:nonzero;"/><path d="M713.292,509.708l-46.125,-26.583l-0,4.458l46.125,26.584l-0,-4.459Z" style="fill-rule:nonzero;"/><path d="M688.167,503.375l-0,4.458l25.125,14.5l-0,-4.458l-25.125,-14.5Z" style="fill-rule:nonzero;"/><path d="M620.417,464.292l-9.042,-5.209l0,4.459l9.042,5.208l-0,-4.458Z" style="fill-rule:nonzero;"/><path d="M637.333,474.083l0,4.459l47,27.083l0,-4.458l-47,-27.084Z" style="fill-rule:nonzero;"/><path d="M633.5,471.875l-9.25,-5.333l0,4.458l9.25,5.333l0,-4.458Z" style="fill-rule:nonzero;"/><path d="M675.625,504.292l-51.375,-29.625l0,4.458l51.375,29.625l0,-4.458Z" style="fill-rule:nonzero;"/></g><g opacity="0.4"><path d="M757.833,91.667l0,4.458l18.75,10.792l0,-4.459l-18.75,-10.791Z" style="fill-rule:nonzero;"/><path d="M757.833,99.792l0,4.458l18.75,10.833l0,-4.458l-18.75,-10.833Z" style="fill-rule:nonzero;"/><path d="M757.833,107.958l0,4.459l18.75,10.791l0,-4.458l-18.75,-10.792Z" style="fill-rule:nonzero;"/><path d="M899.25,202.125l0,-4.458l-115.625,-66.709l0,4.459l115.625,66.708Z" style="fill-rule:nonzero;"/><path d="M757.833,116.125l0,4.458l18.75,10.792l0,-4.458l-18.75,-10.792Z" style="fill-rule:nonzero;"/><path d="M757.833,124.25l0,4.458l18.75,10.834l0,-4.5l-18.75,-10.792Z" style="fill-rule:nonzero;"/><path d="M899.25,210.292l0,-4.459l-115.625,-66.708l0,4.458l115.625,66.709Z" style="fill-rule:nonzero;"/><path d="M757.833,148.708l0,4.459l18.75,10.791l0,-4.458l-18.75,-10.792Z" style="fill-rule:nonzero;"/><path d="M757.833,156.833l0,4.459l18.75,10.833l0,-4.458l-18.75,-10.834Z" style="fill-rule:nonzero;"/><path d="M757.833,189.458l0,4.459l18.75,10.791l0,-4.458l-18.75,-10.792Z" style="fill-rule:nonzero;"/><path d="M757.833,197.583l0,4.459l18.75,10.833l0,-4.5l-18.75,-10.792Z" style="fill-rule:nonzero;"/><path d="M856.542,254.542l-72.917,-42.084l0,4.459l72.917,42.083l-0,-4.458Z" style="fill-rule:nonzero;"/><path d="M860.417,256.75l-0,4.458l38.833,22.417l0,-4.458l-38.833,-22.417Z" style="fill-rule:nonzero;"/><path d="M820.25,225.458l-36.625,-21.166l0,4.458l36.625,21.167l0,-4.459Z" style="fill-rule:nonzero;"/><path d="M824.083,227.667l0,4.458l75.167,43.333l0,-4.458l-75.167,-43.333Z" style="fill-rule:nonzero;"/><path d="M889.375,240.833l0,4.5l9.875,5.667l0,-4.458l-9.875,-5.709Z" style="fill-rule:nonzero;"/><path d="M835.583,201.667l-51.958,-29.959l0,4.459l51.958,29.958l0,-4.458Z" style="fill-rule:nonzero;"/><path d="M814.292,124.208l-30.667,-17.666l0,4.458l30.667,17.667l-0,-4.459Z" style="fill-rule:nonzero;"/><path d="M864.542,153.208l-46.417,-26.791l0,4.458l46.417,26.792l-0,-4.459Z" style="fill-rule:nonzero;"/><path d="M837.5,145.75l-32.708,-18.833l-0,4.458l32.708,18.833l0,-4.458Z" style="fill-rule:nonzero;"/><path d="M871.792,165.542l-30.459,-17.584l0,4.459l30.459,17.583l-0,-4.458Z" style="fill-rule:nonzero;"/><path d="M875.625,167.75l0,4.458l23.625,13.625l0,-4.458l-23.625,-13.625Z" style="fill-rule:nonzero;"/><path d="M789.625,126.292l0,4.458l24.667,14.208l-0,-4.458l-24.667,-14.208Z" style="fill-rule:nonzero;"/><path d="M889.625,183.958l-71.5,-41.208l0,4.458l71.5,41.209l0,-4.459Z" style="fill-rule:nonzero;"/><path d="M848.667,184.792l-46.709,-26.959l0,4.459l46.709,26.958l-0,-4.458Z" style="fill-rule:nonzero;"/><path d="M889.625,208.417l-37.083,-21.417l-0,4.458l37.083,21.417l0,-4.458Z" style="fill-rule:nonzero;"/><path d="M885.5,230.5l-46.083,-26.583l-0,4.458l46.083,26.583l0,-4.458Z" style="fill-rule:nonzero;"/><path d="M860.417,224.167l-0,4.458l25.083,14.458l0,-4.458l-25.083,-14.458Z" style="fill-rule:nonzero;"/><path d="M792.667,185.083l-9.042,-5.208l0,4.458l9.042,5.209l-0,-4.459Z" style="fill-rule:nonzero;"/><path d="M809.583,194.833l0,4.459l46.959,27.125l-0,-4.5l-46.959,-27.084Z" style="fill-rule:nonzero;"/><path d="M805.75,192.625l-9.25,-5.333l0,4.458l9.25,5.333l0,-4.458Z" style="fill-rule:nonzero;"/><path d="M847.875,225.083l-51.375,-29.625l0,4.459l51.375,29.625l0,-4.459Z" style="fill-rule:nonzero;"/></g><path d="M419.125,664.208c-7.756,-2.672 -16.351,-1.361 -22.958,3.5c-12.5,8.334 -20.834,19.709 -15.75,23.959c5.083,4.25 14.875,8.791 21.25,6.5c6.375,-2.292 37.875,-20.792 17.458,-33.959Z" style="fill:#0f4463;fill-rule:nonzero;"/><path d="M681.25,615.583l-98.167,55.625l-62.583,-36.208l98.167,-55.583l62.583,36.166Z" style="fill:#ed5561;fill-rule:nonzero;"/><path d="M602.292,669.875l-0,2.167l98.166,-56.209l0,-1.583l-98.166,55.625Z" style="fill:#f0cec9;fill-rule:nonzero;"/><path d="M700.458,614.25l-98.166,55.625l-62.542,-36.208l98.125,-55.584l62.583,36.167Z" style="fill:#fffbf0;fill-rule:nonzero;"/><path d="M602.292,669.875l-0,2.167l-62.542,-36.209l0,-2.166l62.542,36.208Z" style="fill:#f5ddd8;fill-rule:nonzero;"/><path d="M637.208,584l37.792,21.792l-1.625,0.958l-37.833,-21.792l1.666,-0.958Z" style="fill:#dfbab8;fill-rule:nonzero;"/><path d="M633.292,586.25l37.791,21.792l-1.666,0.916l-37.792,-21.791l1.667,-0.917Z" style="fill:#dfbab8;fill-rule:nonzero;"/><path d="M624.167,591.417l52.041,30.041l-1.666,0.917l-52.042,-30.042l1.667,-0.916Z" style="fill:#dfbab8;fill-rule:nonzero;"/><path d="M620.542,593.458l52.041,30.042l-1.625,0.917l-52.083,-30.042l1.667,-0.917Z" style="fill:#dfbab8;fill-rule:nonzero;"/><path d="M616.958,595.5l52.042,30.042l-1.667,0.916l-52.041,-30.041l1.666,-0.917Z" style="fill:#dfbab8;fill-rule:nonzero;"/><path d="M613.333,597.542l52.042,30.041l-1.625,0.917l-52.042,-30.042l1.625,-0.916Z" style="fill:#dfbab8;fill-rule:nonzero;"/><path d="M609.75,599.583l52.042,30.042l-1.667,0.958l-52.042,-30.041l1.667,-0.959Z" style="fill:#dfbab8;fill-rule:nonzero;"/><path d="M606.125,601.625l52.083,30.042l-1.666,0.958l-52.042,-30.042l1.625,-0.958Z" style="fill:#dfbab8;fill-rule:nonzero;"/><path d="M602.542,603.667l52.041,30.041l-1.666,0.959l-52.042,-30.042l1.667,-0.958Z" style="fill:#dfbab8;fill-rule:nonzero;"/><path d="M598.917,605.708l52.083,30.042l-1.667,0.958l-52.041,-30.041l1.625,-0.959Z" style="fill:#dfbab8;fill-rule:nonzero;"/><path d="M595.333,607.75l52.042,30.042l-1.667,0.958l-52.041,-30.042l1.666,-0.958Z" style="fill:#dfbab8;fill-rule:nonzero;"/><path d="M591.708,609.792l52.084,30.041l-1.667,0.959l-52.042,-30.042l1.625,-0.958Z" style="fill:#dfbab8;fill-rule:nonzero;"/><path d="M588.125,611.833l52.042,30.084l-1.667,0.916l-52.042,-30.041l1.667,-0.959Z" style="fill:#dfbab8;fill-rule:nonzero;"/><path d="M584.542,613.917l52.041,30l-1.666,0.958l-52.042,-30.042l1.667,-0.916Z" style="fill:#dfbab8;fill-rule:nonzero;"/><path d="M580.917,615.958l52.041,30.042l-1.666,0.917l-52.042,-30.042l1.667,-0.917Z" style="fill:#dfbab8;fill-rule:nonzero;"/><path d="M577.333,618l52.042,30.042l-1.667,0.916l-52.041,-30.041l1.666,-0.917Z" style="fill:#dfbab8;fill-rule:nonzero;"/><path d="M573.708,620.042l52.042,30.041l-1.625,0.917l-52.083,-30.042l1.666,-0.916Z" style="fill:#dfbab8;fill-rule:nonzero;"/><path d="M531.292,647.958l-9.167,0l0,9.917l9.167,0c3.405,0 6.208,2.803 6.208,6.208l0,16.084c-0.023,3.39 -2.818,6.166 -6.208,6.166l-13.459,0l0,9.917l13.459,0c8.83,0 16.102,-7.253 16.125,-16.083l-0,-15.959c-0,-0.027 -0,-0.055 -0,-0.083c-0,-8.853 -7.272,-16.144 -16.125,-16.167Z" style="fill:#a7bcce;fill-rule:nonzero;"/><path d="M527.833,642.5l0,55.75c0,8.667 -12.875,15.667 -28.75,15.667c-15.875,-0 -28.791,-7 -28.791,-15.667l-0,-55.75l57.541,0Z" style="fill:#bbcee1;fill-rule:nonzero;"/><path d="M470.292,642.5c-0,8.625 12.875,15.667 28.791,15.667c15.917,-0 28.75,-7.042 28.75,-15.667c0,-8.625 -12.875,-15.792 -28.75,-15.792c-15.875,0 -28.791,7.167 -28.791,15.792Z" style="fill-rule:nonzero;"/><path d="M476.042,642.292c-0,6.791 10.291,12.25 23.041,12.25c12.75,-0 23.042,-5.459 23.042,-12.25c-0,-6.792 -10.333,-12.209 -23.042,-12.209c-12.708,0 -23.041,5.459 -23.041,12.209Z" style="fill:#a7bcce;fill-rule:nonzero;"/><path d="M499.083,638.083c-10.083,0 -18.625,3.459 -21.791,8.334c3.166,4.791 11.708,8.333 21.791,8.333c10.084,0 18.625,-3.458 21.75,-8.333c-3.125,-4.875 -11.666,-8.334 -21.75,-8.334Z" style="fill:#9d4d36;fill-rule:nonzero;"/><path d="M509.958,657l0,55.75c4.958,-0.942 9.609,-3.089 13.542,-6.25l0,-55.75c-3.933,3.161 -8.584,5.308 -13.542,6.25Z" style="fill:#a7bcce;fill-rule:nonzero;"/><defs><linearGradient id="_Linear1" x1="0" y1="0" x2="1" y2="0" gradientUnits="userSpaceOnUse" gradientTransform="matrix(71.9583,-236.667,236.667,71.9583,363.75,551.833)"><stop offset="0" style="stop-color:#1c75bc;stop-opacity:1"/><stop offset="0.28" style="stop-color:#2077bc;stop-opacity:1"/><stop offset="0.54" style="stop-color:#2b7ebc;stop-opacity:1"/><stop offset="0.8" style="stop-color:#3e88bc;stop-opacity:1"/><stop offset="1" style="stop-color:#5394bc;stop-opacity:1"/></linearGradient></defs></svg>